<svg version="1.1" viewBox="0.0 0.0 600.0 371.0" fill="none" stroke="none" stroke-linecap="square" stroke-miterlimit="10" width="600" height="371" xmlns:xlink="http://www.w3.org/1999/xlink" xmlns="http://www.w3.org/2000/svg"><path fill="#ffffff" d="M0 0L600.0 0L600.0 371.0L0 371.0L0 0Z" fill-rule="nonzero"/><path stroke="#cccccc" stroke-width="1.0" stroke-linecap="butt" d="M91.5 286.5L581.5 286.5" fill-rule="nonzero"/><path stroke="#cccccc" stroke-width="1.0" stroke-linecap="butt" d="M91.5 239.5L581.5 239.5" fill-rule="nonzero"/><path stroke="#cccccc" stroke-width="1.0" stroke-linecap="butt" d="M91.5 192.5L581.5 192.5" fill-rule="nonzero"/><path stroke="#cccccc" stroke-width="1.0" stroke-linecap="butt" d="M91.5 146.5L581.5 146.5" fill-rule="nonzero"/><path stroke="#cccccc" stroke-width="1.0" stroke-linecap="butt" d="M91.5 99.5L581.5 99.5" fill-rule="nonzero"/><clipPath id="id_0"><path d="M91.55 61.916668L581.45 61.916668L581.45 286.45L91.55 286.45L91.55 61.916668Z" clip-rule="nonzero"/></clipPath><path stroke="#000000" stroke-width="2.0" stroke-linecap="butt" stroke-opacity="0.0" clip-path="url(#id_0)" d="M169.0 286.0L119.0 286.0L119.0 64.0C119.0 62.89543 119.89543 62.0 121.0 62.0L167.0 62.0C168.10457 62.0 169.0 62.89543 169.0 64.0Z" fill-rule="nonzero"/><path fill="#4285f4" clip-path="url(#id_0)" d="M169.0 286.0L119.0 286.0L119.0 64.0C119.0 62.89543 119.89543 62.0 121.0 62.0L167.0 62.0C168.10457 62.0 169.0 62.89543 169.0 64.0Z" fill-rule="nonzero"/><path stroke="#000000" stroke-width="2.0" stroke-linecap="butt" stroke-opacity="0.0" clip-path="url(#id_0)" d="M246.0 286.0L196.0 286.0L196.0 128.0C196.0 126.89543 196.89543 126.0 198.0 126.0L244.0 126.0C245.10457 126.0 246.0 126.89543 246.0 128.0Z" fill-rule="nonzero"/><path fill="#4285f4" clip-path="url(#id_0)" d="M246.0 286.0L196.0 286.0L196.0 128.0C196.0 126.89543 196.89543 126.0 198.0 126.0L244.0 126.0C245.10457 126.0 246.0 126.89543 246.0 128.0Z" fill-rule="nonzero"/><path stroke="#000000" stroke-width="2.0" stroke-linecap="butt" stroke-opacity="0.0" clip-path="url(#id_0)" d="M323.0 286.0L273.0 286.0L273.0 205.0C273.0 203.89543 273.89542 203.0 275.0 203.0L321.0 203.0C322.10458 203.0 323.0 203.89543 323.0 205.0Z" fill-rule="nonzero"/><path fill="#ff9900" clip-path="url(#id_0)" d="M323.0 286.0L273.0 286.0L273.0 205.0C273.0 203.89543 273.89542 203.0 275.0 203.0L321.0 203.0C322.10458 203.0 323.0 203.89543 323.0 205.0Z" fill-rule="nonzero"/><path stroke="#000000" stroke-width="2.0" stroke-linecap="butt" stroke-opacity="0.0" clip-path="url(#id_0)" d="M400.0 286.0L350.0 286.0L350.0 214.0C350.0 212.89543 350.89542 212.0 352.0 212.0L398.0 212.0C399.10458 212.0 400.0 212.89543 400.0 214.0Z" fill-rule="nonzero"/><path fill="#ff9900" clip-path="url(#id_0)" d="M400.0 286.0L350.0 286.0L350.0 214.0C350.0 212.89543 350.89542 212.0 352.0 212.0L398.0 212.0C399.10458 212.0 400.0 212.89543 400.0 214.0Z" fill-rule="nonzero"/><path stroke="#000000" stroke-width="2.0" stroke-linecap="butt" stroke-opacity="0.0" clip-path="url(#id_0)" d="M477.0 286.0L427.0 286.0L427.0 242.0C427.0 240.89543 427.89542 240.0 429.0 240.0L475.0 240.0C476.10458 240.0 477.0 240.89543 477.0 242.0Z" fill-rule="nonzero"/><path fill="#ff9900" clip-path="url(#id_0)" d="M477.0 286.0L427.0 286.0L427.0 242.0C427.0 240.89543 427.89542 240.0 429.0 240.0L475.0 240.0C476.10458 240.0 477.0 240.89543 477.0 242.0Z" fill-rule="nonzero"/><path stroke="#000000" stroke-width="2.0" stroke-linecap="butt" stroke-opacity="0.0" clip-path="url(#id_0)" d="M554.0 286.0L504.0 286.0L504.0 274.0C504.0 272.89542 504.89542 272.0 506.0 272.0L552.0 272.0C553.10455 272.0 554.0 272.89542 554.0 274.0Z" fill-rule="nonzero"/><path fill="#ff9900" clip-path="url(#id_0)" d="M554.0 286.0L504.0 286.0L504.0 274.0C504.0 272.89542 504.89542 272.0 506.0 272.0L552.0 272.0C553.10455 272.0 554.0 272.89542 554.0 274.0Z" fill-rule="nonzero"/><path fill="#000000" d="M321.875 349.45L321.875 340.85626L323.01562 340.85626L323.01562 348.4344L327.25 348.4344L327.25 349.45L321.875 349.45ZM332.85938 348.6844Q332.26562 349.1844 331.71875 349.3875Q331.1875 349.59064 330.5625 349.59064Q329.53125 349.59064 328.98438 349.09064Q328.4375 348.59064 328.4375 347.8094Q328.4375 347.35626 328.64062 346.98126Q328.84375 346.59064 329.1875 346.3719Q329.53125 346.1375 329.95312 346.02814Q330.25 345.9344 330.89062 345.85626Q332.15625 345.71564 332.76562 345.4969Q332.76562 345.27814 332.76562 345.23126Q332.76562 344.575 332.46875 344.3094Q332.0625 343.96564 331.26562 343.96564Q330.53125 343.96564 330.17188 344.23126Q329.8125 344.48126 329.64062 345.1375L328.60938 344.9969Q328.75 344.34064 329.07812 343.9344Q329.40625 343.52814 330.01562 343.3094Q330.625 343.09064 331.42188 343.09064Q332.21875 343.09064 332.71875 343.27814Q333.21875 343.46564 333.45312 343.7469Q333.6875 344.02814 333.78125 344.46564Q333.82812 344.73126 333.82812 345.4344L333.82812 346.84064Q333.82812 348.3094 333.89062 348.7Q333.96875 349.09064 334.17188 349.45L333.0625 349.45Q332.90625 349.1219 332.85938 348.6844ZM332.76562 346.325Q332.1875 346.5594 331.04688 346.73126Q330.39062 346.825 330.125 346.95Q329.85938 347.0594 329.70312 347.27814Q329.5625 347.4969 329.5625 347.77814Q329.5625 348.2 329.875 348.48126Q330.20312 348.7625 330.8125 348.7625Q331.42188 348.7625 331.89062 348.4969Q332.375 348.23126 332.59375 347.7625Q332.76562 347.40314 332.76562 346.71564L332.76562 346.325ZM336.76562 349.45L335.78125 349.45L335.78125 340.85626L336.84375 340.85626L336.84375 343.91876Q337.51562 343.09064 338.54688 343.09064Q339.125 343.09064 339.625 343.325Q340.14062 343.54376 340.46875 343.96564Q340.8125 344.3875 341.0 344.98126Q341.1875 345.575 341.1875 346.2469Q341.1875 347.84064 340.39062 348.71564Q339.59375 349.59064 338.5 349.59064Q337.39062 349.59064 336.76562 348.66876L336.76562 349.45ZM336.75 346.29376Q336.75 347.40314 337.0625 347.90314Q337.5625 348.71564 338.40625 348.71564Q339.09375 348.71564 339.59375 348.1219Q340.10938 347.52814 340.10938 346.325Q340.10938 345.10626 339.625 344.52814Q339.14062 343.95 338.45312 343.95Q337.76562 343.95 337.25 344.5594Q336.75 345.15314 336.75 346.29376ZM347.04688 347.45L348.14062 347.575Q347.89062 348.52814 347.1875 349.0594Q346.48438 349.59064 345.40625 349.59064Q344.04688 349.59064 343.23438 348.7469Q342.4375 347.90314 342.4375 346.3875Q342.4375 344.825 343.25 343.96564Q344.0625 343.09064 345.34375 343.09064Q346.59375 343.09064 347.375 343.9344Q348.17188 344.77814 348.17188 346.325Q348.17188 346.41876 348.17188 346.60626L343.53125 346.60626Q343.59375 347.6375 344.10938 348.1844Q344.625 348.71564 345.40625 348.71564Q345.98438 348.71564 346.39062 348.41876Q346.8125 348.10626 347.04688 347.45ZM343.59375 345.7469L347.0625 345.7469Q347.0 344.95 346.67188 344.5594Q346.15625 343.95 345.35938 343.95Q344.625 343.95 344.125 344.4344Q343.64062 344.91876 343.59375 345.7469ZM349.76562 349.45L349.76562 340.85626L350.82812 340.85626L350.82812 349.45L349.76562 349.45Z" fill-rule="nonzero"/><path fill="#000000" d="M29.550013 238.26146L20.956263 238.26146L20.956263 237.10521L27.706263 232.58958L20.956263 232.58958L20.956263 231.49583L29.550013 231.49583L29.550013 232.66771L22.800013 237.18333L29.550013 237.18333L29.550013 238.26146ZM29.550013 225.30833L28.628138 225.30833Q29.690638 226.04271 29.690638 227.29271Q29.690638 227.83958 29.487513 228.32396Q29.268763 228.79271 28.956263 229.02708Q28.628138 229.26146 28.159388 229.35521Q27.862513 229.41771 27.175013 229.41771L23.331263 229.41771L23.331263 228.35521L26.784388 228.35521Q27.596888 228.35521 27.893763 228.29271Q28.300013 228.19896 28.550013 227.88646Q28.784388 227.55833 28.784388 227.07396Q28.784388 226.60521 28.550013 226.19896Q28.300013 225.77708 27.878138 225.60521Q27.456263 225.41771 26.659388 225.41771L23.331263 225.41771L23.331263 224.37083L29.550013 224.37083L29.550013 225.30833ZM29.550013 222.38646L23.331263 222.38646L23.331263 221.44896L24.206263 221.44896Q23.737513 221.15208 23.471888 220.66771Q23.190638 220.18333 23.190638 219.55833Q23.190638 218.87083 23.471888 218.43333Q23.753138 217.98021 24.268763 217.80833Q23.190638 217.05833 23.190638 215.88646Q23.190638 214.94896 23.706263 214.46458Q24.206263 213.96458 25.284388 213.96458L29.550013 213.96458L29.550013 215.01146L25.628138 215.01146Q25.003138 215.01146 24.721888 215.12083Q24.440638 215.21458 24.268763 215.48021Q24.096888 215.74583 24.096888 216.12083Q24.096888 216.77708 24.534388 217.21458Q24.971888 217.63646 25.940638 217.63646L29.550013 217.63646L29.550013 218.69896L25.503138 218.69896Q24.800013 218.69896 24.456263 218.96458Q24.096888 219.21458 24.096888 219.79271Q24.096888 220.24583 24.331263 220.62083Q24.565638 220.99583 25.018763 221.16771Q25.471888 221.33958 26.315638 221.33958L29.550013 221.33958L29.550013 222.38646ZM29.550013 210.41771L29.550013 211.40208L20.956263 211.40208L20.956263 210.33958L24.018763 210.33958Q23.190638 209.66771 23.190638 208.63646Q23.190638 208.05833 23.425013 207.55833Q23.643763 207.04271 24.065638 206.71458Q24.487513 206.37083 25.081263 206.18333Q25.675013 205.99583 26.346888 205.99583Q27.940638 205.99583 28.815638 206.79271Q29.690638 207.58958 29.690638 208.68333Q29.690638 209.79271 28.768763 210.41771L29.550013 210.41771ZM26.393763 210.43333Q27.503138 210.43333 28.003138 210.12083Q28.815638 209.62083 28.815638 208.77708Q28.815638 208.08958 28.221888 207.58958Q27.628138 207.07396 26.425013 207.07396Q25.206263 207.07396 24.628138 207.55833Q24.050013 208.04271 24.050013 208.73021Q24.050013 209.41771 24.659388 209.93333Q25.253138 210.43333 26.393763 210.43333ZM27.550013 200.13646L27.675013 199.04271Q28.628138 199.29271 29.159388 199.99583Q29.690638 200.69896 29.690638 201.77708Q29.690638 203.13646 28.846888 203.94896Q28.003138 204.74583 26.487513 204.74583Q24.925013 204.74583 24.065638 203.93333Q23.190638 203.12083 23.190638 201.83958Q23.190638 200.58958 24.034388 199.80833Q24.878138 199.01146 26.425013 199.01146Q26.518763 199.01146 26.706263 199.01146L26.706263 203.65208Q27.737513 203.58958 28.284388 203.07396Q28.815638 202.55833 28.815638 201.77708Q28.815638 201.19896 28.518763 200.79271Q28.206263 200.37083 27.550013 200.13646ZM25.846888 203.58958L25.846888 200.12083Q25.050013 200.18333 24.659388 200.51146Q24.050013 201.02708 24.050013 201.82396Q24.050013 202.55833 24.534388 203.05833Q25.018763 203.54271 25.846888 203.58958ZM29.550013 197.40208L23.331263 197.40208L23.331263 196.44896L24.268763 196.44896Q23.612513 196.08958 23.409388 195.79271Q23.190638 195.48021 23.190638 195.10521Q23.190638 194.57396 23.518763 194.02708L24.503138 194.38646Q24.268763 194.77708 24.268763 195.15208Q24.268763 195.51146 24.487513 195.79271Q24.690638 196.05833 25.065638 196.16771Q25.628138 196.35521 26.284388 196.35521L29.550013 196.35521L29.550013 197.40208ZM26.440638 190.77708Q24.706263 190.77708 23.878138 189.82396Q23.190638 189.02708 23.190638 187.87083Q23.190638 186.58958 24.034388 185.77708Q24.862513 184.94896 26.346888 184.94896Q27.550013 184.94896 28.237513 185.30833Q28.925013 185.66771 29.315638 186.37083Q29.690638 187.05833 29.690638 187.87083Q29.690638 189.16771 28.862513 189.98021Q28.018763 190.77708 26.440638 190.77708ZM26.440638 189.69896Q27.628138 189.69896 28.221888 189.18333Q28.815638 188.65208 28.815638 187.87083Q28.815638 187.07396 28.221888 186.55833Q27.628138 186.04271 26.409388 186.04271Q25.253138 186.04271 24.659388 186.57396Q24.065638 187.08958 24.065638 187.87083Q24.065638 188.65208 24.659388 189.18333Q25.237513 189.69896 26.440638 189.69896ZM29.550013 183.13646L24.143763 183.13646L24.143763 184.07396L23.331263 184.07396L23.331263 183.13646L22.659388 183.13646Q22.034388 183.13646 21.737513 183.02708Q21.315638 182.87083 21.065638 182.49583Q20.815638 182.10521 20.815638 181.41771Q20.815638 180.96458 20.925013 180.43333L21.831263 180.58958Q21.784388 180.91771 21.784388 181.21458Q21.784388 181.69896 21.987513 181.90208Q22.190638 182.08958 22.753138 182.08958L23.331263 182.08958L23.331263 180.87083L24.143763 180.87083L24.143763 182.08958L29.550013 182.08958L29.550013 183.13646ZM29.550013 177.05833L20.956263 177.05833L20.956263 175.93333L29.550013 175.93333L29.550013 177.05833ZM29.550013 174.38646L23.331263 174.38646L23.331263 173.44896L24.206263 173.44896Q23.737513 173.15208 23.471888 172.66771Q23.190638 172.18333 23.190638 171.55833Q23.190638 170.87083 23.471888 170.43333Q23.753138 169.98021 24.268763 169.80833Q23.190638 169.05833 23.190638 167.88646Q23.190638 166.94896 23.706263 166.46458Q24.206263 165.96458 25.284388 165.96458L29.550013 165.96458L29.550013 167.01146L25.628138 167.01146Q25.003138 167.01146 24.721888 167.12083Q24.440638 167.21458 24.268763 167.48021Q24.096888 167.74583 24.096888 168.12083Q24.096888 168.77708 24.534388 169.21458Q24.971888 169.63646 25.940638 169.63646L29.550013 169.63646L29.550013 170.69896L25.503138 170.69896Q24.800013 170.69896 24.456263 170.96458Q24.096888 171.21458 24.096888 171.79271Q24.096888 172.24583 24.331263 172.62083Q24.565638 172.99583 25.018763 173.16771Q25.471888 173.33958 26.315638 173.33958L29.550013 173.33958L29.550013 174.38646ZM28.784388 159.32396Q29.284388 159.91771 29.487513 160.46458Q29.690638 160.99583 29.690638 161.62083Q29.690638 162.65208 29.190638 163.19896Q28.690638 163.74583 27.909388 163.74583Q27.456263 163.74583 27.081263 163.54271Q26.690638 163.33958 26.471888 162.99583Q26.237513 162.65208 26.128138 162.23021Q26.034388 161.93333 25.956263 161.29271Q25.815638 160.02708 25.596888 159.41771Q25.378138 159.41771 25.331263 159.41771Q24.675013 159.41771 24.409388 159.71458Q24.065638 160.12083 24.065638 160.91771Q24.065638 161.65208 24.331263 162.01146Q24.581263 162.37083 25.237513 162.54271L25.096888 163.57396Q24.440638 163.43333 24.034388 163.10521Q23.628138 162.77708 23.409388 162.16771Q23.190638 161.55833 23.190638 160.76146Q23.190638 159.96458 23.378138 159.46458Q23.565638 158.96458 23.846888 158.73021Q24.128138 158.49583 24.565638 158.40208Q24.831263 158.35521 25.534388 158.35521L26.940638 158.35521Q28.409388 158.35521 28.800013 158.29271Q29.190638 158.21458 29.550013 158.01146L29.550013 159.12083Q29.221888 159.27708 28.784388 159.32396ZM26.425013 159.41771Q26.659388 159.99583 26.831263 161.13646Q26.925013 161.79271 27.050013 162.05833Q27.159388 162.32396 27.378138 162.48021Q27.596888 162.62083 27.878138 162.62083Q28.300013 162.62083 28.581263 162.30833Q28.862513 161.98021 28.862513 161.37083Q28.862513 160.76146 28.596888 160.29271Q28.331263 159.80833 27.862513 159.58958Q27.503138 159.41771 26.815638 159.41771L26.425013 159.41771ZM30.065638 156.58958L30.221888 155.55833Q30.690638 155.49583 30.909388 155.19896Q31.206263 154.80833 31.206263 154.13646Q31.206263 153.40208 30.909388 153.01146Q30.612513 152.60521 30.096888 152.46458Q29.768763 152.37083 28.737513 152.38646Q29.550013 153.07396 29.550013 154.10521Q29.550013 155.38646 28.628138 156.08958Q27.690638 156.79271 26.409388 156.79271Q25.518763 156.79271 24.768763 156.48021Q24.003138 156.15208 23.596888 155.54271Q23.190638 154.93333 23.190638 154.10521Q23.190638 152.99583 24.081263 152.27708L23.331263 152.27708L23.331263 151.30833L28.706263 151.30833Q30.159388 151.30833 30.768763 151.60521Q31.378138 151.90208 31.721888 152.54271Q32.08126 153.18333 32.08126 154.12083Q32.08126 155.23021 31.581263 155.91771Q31.081263 156.60521 30.065638 156.58958ZM26.331263 155.71458Q27.550013 155.71458 28.112513 155.23021Q28.675013 154.74583 28.675013 154.01146Q28.675013 153.27708 28.112513 152.79271Q27.550013 152.29271 26.362513 152.29271Q25.221888 152.29271 24.643763 152.80833Q24.065638 153.30833 24.065638 154.02708Q24.065638 154.73021 24.643763 155.23021Q25.206263 155.71458 26.331263 155.71458ZM27.550013 145.13646L27.675013 144.04271Q28.628138 144.29271 29.159388 144.99583Q29.690638 145.69896 29.690638 146.77708Q29.690638 148.13646 28.846888 148.94896Q28.003138 149.74583 26.487513 149.74583Q24.925013 149.74583 24.065638 148.93333Q23.190638 148.12083 23.190638 146.83958Q23.190638 145.58958 24.034388 144.80833Q24.878138 144.01146 26.425013 144.01146Q26.518763 144.01146 26.706263 144.01146L26.706263 148.65208Q27.737513 148.58958 28.284388 148.07396Q28.815638 147.55833 28.815638 146.77708Q28.815638 146.19896 28.518763 145.79271Q28.206263 145.37083 27.550013 145.13646ZM25.846888 148.58958L25.846888 145.12083Q25.050013 145.18333 24.659388 145.51146Q24.050013 146.02708 24.050013 146.82396Q24.050013 147.55833 24.534388 148.05833Q25.018763 148.54271 25.846888 148.58958ZM27.690638 142.80833L27.534388 141.77708Q28.159388 141.68333 28.487513 141.29271Q28.815638 140.88646 28.815638 140.15208Q28.815638 139.43333 28.534388 139.08958Q28.237513 138.73021 27.831263 138.73021Q27.471888 138.73021 27.268763 139.04271Q27.128138 139.26146 26.909388 140.12083Q26.612513 141.27708 26.409388 141.73021Q26.190638 142.16771 25.815638 142.40208Q25.440638 142.63646 24.971888 142.63646Q24.565638 142.63646 24.206263 142.44896Q23.846888 142.26146 23.612513 141.93333Q23.440638 141.68333 23.315638 141.26146Q23.190638 140.83958 23.190638 140.33958Q23.190638 139.62083 23.409388 139.07396Q23.612513 138.51146 23.971888 138.24583Q24.331263 137.98021 24.925013 137.88646L25.065638 138.91771Q24.596888 138.98021 24.331263 139.32396Q24.050013 139.65208 24.050013 140.27708Q24.050013 140.99583 24.300013 141.30833Q24.534388 141.62083 24.862513 141.62083Q25.065638 141.62083 25.221888 141.49583Q25.393763 141.35521 25.503138 141.08958Q25.565638 140.93333 25.768763 140.15208Q26.081263 139.02708 26.268763 138.58958Q26.456263 138.15208 26.815638 137.90208Q27.175013 137.65208 27.721888 137.65208Q28.253138 137.65208 28.721888 137.96458Q29.175013 138.26146 29.440638 138.83958Q29.690638 139.41771 29.690638 140.15208Q29.690638 141.37083 29.190638 142.01146Q28.675013 142.63646 27.690638 142.80833Z" fill-rule="nonzero"/><path fill="#000000" d="M83.01875 290.45L81.97188 290.45L81.97188 283.73126Q81.58125 284.09064 80.95625 284.46564Q80.34688 284.825 79.8625 284.9969L79.8625 283.98126Q80.7375 283.5594 81.39375 282.98126Q82.06563 282.3875 82.34688 281.825L83.01875 281.825L83.01875 290.45Z" fill-rule="nonzero"/><path fill="#000000" d="M76.01875 243.68997L74.97188 243.68997L74.97188 236.97122Q74.58125 237.3306 73.95625 237.7056Q73.34688 238.06497 72.8625 238.23685L72.8625 237.22122Q73.7375 236.79935 74.39375 236.22122Q75.06563 235.62747 75.34688 235.06497L76.01875 235.06497L76.01875 243.68997ZM79.05 239.4556Q79.05 237.92435 79.3625 237.00247Q79.675 236.06497 80.28438 235.56497Q80.90938 235.06497 81.84688 235.06497Q82.53438 235.06497 83.05 235.34622Q83.58125 235.62747 83.925 236.15872Q84.26875 236.67435 84.45625 237.42435Q84.64375 238.17435 84.64375 239.4556Q84.64375 240.97122 84.33125 241.8931Q84.03438 242.81497 83.40938 243.3306Q82.8 243.8306 81.84688 243.8306Q80.6125 243.8306 79.89375 242.93997Q79.05 241.87747 79.05 239.4556ZM80.12813 239.4556Q80.12813 241.56497 80.62813 242.2681Q81.12813 242.97122 81.84688 242.97122Q82.58125 242.97122 83.06563 242.2681Q83.56563 241.56497 83.56563 239.4556Q83.56563 237.3306 83.06563 236.6431Q82.58125 235.93997 81.83125 235.93997Q81.1125 235.93997 80.675 236.54935Q80.12813 237.3306 80.12813 239.4556Z" fill-rule="nonzero"/><path fill="#000000" d="M69.01875 196.92995L67.97188 196.92995L67.97188 190.2112Q67.58125 190.57057 66.95625 190.94557Q66.34688 191.30495 65.8625 191.47682L65.8625 190.4612Q66.7375 190.03932 67.39375 189.4612Q68.06563 188.86745 68.34688 188.30495L69.01875 188.30495L69.01875 196.92995ZM72.05 192.69557Q72.05 191.16432 72.3625 190.24245Q72.675 189.30495 73.28438 188.80495Q73.90938 188.30495 74.84688 188.30495Q75.53438 188.30495 76.05 188.5862Q76.58125 188.86745 76.925 189.3987Q77.26875 189.91432 77.45625 190.66432Q77.64375 191.41432 77.64375 192.69557Q77.64375 194.2112 77.33125 195.13307Q77.03438 196.05495 76.40938 196.57057Q75.8 197.07057 74.84688 197.07057Q73.6125 197.07057 72.89375 196.17995Q72.05 195.11745 72.05 192.69557ZM73.12813 192.69557Q73.12813 194.80495 73.62813 195.50807Q74.12813 196.2112 74.84688 196.2112Q75.58125 196.2112 76.06563 195.50807Q76.56563 194.80495 76.56563 192.69557Q76.56563 190.57057 76.06563 189.88307Q75.58125 189.17995 74.83125 189.17995Q74.1125 189.17995 73.675 189.78932Q73.12813 190.57057 73.12813 192.69557ZM79.05 192.69557Q79.05 191.16432 79.3625 190.24245Q79.675 189.30495 80.28438 188.80495Q80.90938 188.30495 81.84688 188.30495Q82.53438 188.30495 83.05 188.5862Q83.58125 188.86745 83.925 189.3987Q84.26875 189.91432 84.45625 190.66432Q84.64375 191.41432 84.64375 192.69557Q84.64375 194.2112 84.33125 195.13307Q84.03438 196.05495 83.40938 196.57057Q82.8 197.07057 81.84688 197.07057Q80.6125 197.07057 79.89375 196.17995Q79.05 195.11745 79.05 192.69557ZM80.12813 192.69557Q80.12813 194.80495 80.62813 195.50807Q81.12813 196.2112 81.84688 196.2112Q82.58125 196.2112 83.06563 195.50807Q83.56563 194.80495 83.56563 192.69557Q83.56563 190.57057 83.06563 189.88307Q82.58125 189.17995 81.83125 189.17995Q81.1125 189.17995 80.675 189.78932Q80.12813 190.57057 80.12813 192.69557Z" fill-rule="nonzero"/><path fill="#000000" d="M62.01875 150.16992L60.971874 150.16992L60.971874 143.45117Q60.58125 143.81055 59.95625 144.18555Q59.346874 144.54492 58.8625 144.7168L58.8625 143.70117Q59.7375 143.2793 60.39375 142.70117Q61.065624 142.10742 61.346874 141.54492L62.01875 141.54492L62.01875 150.16992ZM65.05 145.93555Q65.05 144.4043 65.3625 143.48242Q65.675 142.54492 66.28438 142.04492Q66.90938 141.54492 67.84688 141.54492Q68.53438 141.54492 69.05 141.82617Q69.58125 142.10742 69.925 142.63867Q70.26875 143.1543 70.45625 143.9043Q70.64375 144.6543 70.64375 145.93555Q70.64375 147.45117 70.33125 148.37305Q70.03438 149.29492 69.40938 149.81055Q68.8 150.31055 67.84688 150.31055Q66.6125 150.31055 65.89375 149.41992Q65.05 148.35742 65.05 145.93555ZM66.12813 145.93555Q66.12813 148.04492 66.62813 148.74805Q67.12813 149.45117 67.84688 149.45117Q68.58125 149.45117 69.06563 148.74805Q69.56563 148.04492 69.56563 145.93555Q69.56563 143.81055 69.06563 143.12305Q68.58125 142.41992 67.83125 142.41992Q67.1125 142.41992 66.675 143.0293Q66.12813 143.81055 66.12813 145.93555ZM72.05 145.93555Q72.05 144.4043 72.3625 143.48242Q72.675 142.54492 73.28438 142.04492Q73.90938 141.54492 74.84688 141.54492Q75.53438 141.54492 76.05 141.82617Q76.58125 142.10742 76.925 142.63867Q77.26875 143.1543 77.45625 143.9043Q77.64375 144.6543 77.64375 145.93555Q77.64375 147.45117 77.33125 148.37305Q77.03438 149.29492 76.40938 149.81055Q75.8 150.31055 74.84688 150.31055Q73.6125 150.31055 72.89375 149.41992Q72.05 148.35742 72.05 145.93555ZM73.12813 145.93555Q73.12813 148.04492 73.62813 148.74805Q74.12813 149.45117 74.84688 149.45117Q75.58125 149.45117 76.06563 148.74805Q76.56563 148.04492 76.56563 145.93555Q76.56563 143.81055 76.06563 143.12305Q75.58125 142.41992 74.83125 142.41992Q74.1125 142.41992 73.675 143.0293Q73.12813 143.81055 73.12813 145.93555ZM79.05 145.93555Q79.05 144.4043 79.3625 143.48242Q79.675 142.54492 80.28438 142.04492Q80.90938 141.54492 81.84688 141.54492Q82.53438 141.54492 83.05 141.82617Q83.58125 142.10742 83.925 142.63867Q84.26875 143.1543 84.45625 143.9043Q84.64375 144.6543 84.64375 145.93555Q84.64375 147.45117 84.33125 148.37305Q84.03438 149.29492 83.40938 149.81055Q82.8 150.31055 81.84688 150.31055Q80.6125 150.31055 79.89375 149.41992Q79.05 148.35742 79.05 145.93555ZM80.12813 145.93555Q80.12813 148.04492 80.62813 148.74805Q81.12813 149.45117 81.84688 149.45117Q82.58125 149.45117 83.06563 148.74805Q83.56563 148.04492 83.56563 145.93555Q83.56563 143.81055 83.06563 143.12305Q82.58125 142.41992 81.83125 142.41992Q81.1125 142.41992 80.675 143.0293Q80.12813 143.81055 80.12813 145.93555Z" fill-rule="nonzero"/><path fill="#000000" d="M55.01875 103.40989L53.971874 103.40989L53.971874 96.69114Q53.58125 97.050514 52.95625 97.425514Q52.346874 97.78489 51.8625 97.956764L51.8625 96.94114Q52.7375 96.519264 53.39375 95.94114Q54.065624 95.34739 54.346874 94.78489L55.01875 94.78489L55.01875 103.40989ZM58.05 99.175514Q58.05 97.644264 58.3625 96.72239Q58.675 95.78489 59.284374 95.28489Q59.909374 94.78489 60.846874 94.78489Q61.534374 94.78489 62.05 95.06614Q62.58125 95.34739 62.925 95.87864Q63.26875 96.394264 63.45625 97.144264Q63.64375 97.894264 63.64375 99.175514Q63.64375 100.69114 63.33125 101.613014Q63.034374 102.53489 62.409374 103.050514Q61.8 103.550514 60.846874 103.550514Q59.6125 103.550514 58.89375 102.65989Q58.05 101.59739 58.05 99.175514ZM59.128124 99.175514Q59.128124 101.28489 59.628124 101.988014Q60.128124 102.69114 60.846874 102.69114Q61.58125 102.69114 62.065624 101.988014Q62.565624 101.28489 62.565624 99.175514Q62.565624 97.050514 62.065624 96.363014Q61.58125 95.65989 60.83125 95.65989Q60.1125 95.65989 59.675 96.269264Q59.128124 97.050514 59.128124 99.175514ZM65.05 99.175514Q65.05 97.644264 65.3625 96.72239Q65.675 95.78489 66.28438 95.28489Q66.90938 94.78489 67.84688 94.78489Q68.53438 94.78489 69.05 95.06614Q69.58125 95.34739 69.925 95.87864Q70.26875 96.394264 70.45625 97.144264Q70.64375 97.894264 70.64375 99.175514Q70.64375 100.69114 70.33125 101.613014Q70.03438 102.53489 69.40938 103.050514Q68.8 103.550514 67.84688 103.550514Q66.6125 103.550514 65.89375 102.65989Q65.05 101.59739 65.05 99.175514ZM66.12813 99.175514Q66.12813 101.28489 66.62813 101.988014Q67.12813 102.69114 67.84688 102.69114Q68.58125 102.69114 69.06563 101.988014Q69.56563 101.28489 69.56563 99.175514Q69.56563 97.050514 69.06563 96.363014Q68.58125 95.65989 67.83125 95.65989Q67.1125 95.65989 66.675 96.269264Q66.12813 97.050514 66.12813 99.175514ZM72.05 99.175514Q72.05 97.644264 72.3625 96.72239Q72.675 95.78489 73.28438 95.28489Q73.90938 94.78489 74.84688 94.78489Q75.53438 94.78489 76.05 95.06614Q76.58125 95.34739 76.925 95.87864Q77.26875 96.394264 77.45625 97.144264Q77.64375 97.894264 77.64375 99.175514Q77.64375 100.69114 77.33125 101.613014Q77.03438 102.53489 76.40938 103.050514Q75.8 103.550514 74.84688 103.550514Q73.6125 103.550514 72.89375 102.65989Q72.05 101.59739 72.05 99.175514ZM73.12813 99.175514Q73.12813 101.28489 73.62813 101.988014Q74.12813 102.69114 74.84688 102.69114Q75.58125 102.69114 76.06563 101.988014Q76.56563 101.28489 76.56563 99.175514Q76.56563 97.050514 76.06563 96.363014Q75.58125 95.65989 74.83125 95.65989Q74.1125 95.65989 73.675 96.269264Q73.12813 97.050514 73.12813 99.175514ZM79.05 99.175514Q79.05 97.644264 79.3625 96.72239Q79.675 95.78489 80.28438 95.28489Q80.90938 94.78489 81.84688 94.78489Q82.53438 94.78489 83.05 95.06614Q83.58125 95.34739 83.925 95.87864Q84.26875 96.394264 84.45625 97.144264Q84.64375 97.894264 84.64375 99.175514Q84.64375 100.69114 84.33125 101.613014Q84.03438 102.53489 83.40938 103.050514Q82.8 103.550514 81.84688 103.550514Q80.6125 103.550514 79.89375 102.65989Q79.05 101.59739 79.05 99.175514ZM80.12813 99.175514Q80.12813 101.28489 80.62813 101.988014Q81.12813 102.69114 81.84688 102.69114Q82.58125 102.69114 83.06563 101.988014Q83.56563 101.28489 83.56563 99.175514Q83.56563 97.050514 83.06563 96.363014Q82.58125 95.65989 81.83125 95.65989Q81.1125 95.65989 80.675 96.269264Q80.12813 97.050514 80.12813 99.175514Z" fill-rule="nonzero"/><path fill="#000000" d="M124.094734 303.45L124.094734 294.85626L125.219734 294.85626L125.219734 298.3875L129.68848 298.3875L129.68848 294.85626L130.8291 294.85626L130.8291 303.45L129.68848 303.45L129.68848 299.40314L125.219734 299.40314L125.219734 303.45L124.094734 303.45ZM137.17285 301.45L138.2666 301.575Q138.0166 302.52814 137.31348 303.0594Q136.61035 303.59064 135.53223 303.59064Q134.17285 303.59064 133.36035 302.7469Q132.56348 301.90314 132.56348 300.3875Q132.56348 298.825 133.37598 297.96564Q134.18848 297.09064 135.46973 297.09064Q136.71973 297.09064 137.50098 297.9344Q138.29785 298.77814 138.29785 300.325Q138.29785 300.41876 138.29785 300.60626L133.65723 300.60626Q133.71973 301.6375 134.23535 302.1844Q134.75098 302.71564 135.53223 302.71564Q136.11035 302.71564 136.5166 302.41876Q136.93848 302.10626 137.17285 301.45ZM133.71973 299.7469L137.18848 299.7469Q137.12598 298.95 136.79785 298.5594Q136.28223 297.95 135.48535 297.95Q134.75098 297.95 134.25098 298.4344Q133.7666 298.91876 133.71973 299.7469ZM143.98535 302.6844Q143.3916 303.1844 142.84473 303.3875Q142.31348 303.59064 141.68848 303.59064Q140.65723 303.59064 140.11035 303.09064Q139.56348 302.59064 139.56348 301.8094Q139.56348 301.35626 139.7666 300.98126Q139.96973 300.59064 140.31348 300.3719Q140.65723 300.1375 141.0791 300.02814Q141.37598 299.9344 142.0166 299.85626Q143.28223 299.71564 143.8916 299.4969Q143.8916 299.27814 143.8916 299.23126Q143.8916 298.575 143.59473 298.3094Q143.18848 297.96564 142.3916 297.96564Q141.65723 297.96564 141.29785 298.23126Q140.93848 298.48126 140.7666 299.1375L139.73535 298.9969Q139.87598 298.34064 140.2041 297.9344Q140.53223 297.52814 141.1416 297.3094Q141.75098 297.09064 142.54785 297.09064Q143.34473 297.09064 143.84473 297.27814Q144.34473 297.46564 144.5791 297.7469Q144.81348 298.02814 144.90723 298.46564Q144.9541 298.73126 144.9541 299.4344L144.9541 300.84064Q144.9541 302.3094 145.0166 302.7Q145.09473 303.09064 145.29785 303.45L144.18848 303.45Q144.03223 303.1219 143.98535 302.6844ZM143.8916 300.325Q143.31348 300.5594 142.17285 300.73126Q141.5166 300.825 141.25098 300.95Q140.98535 301.0594 140.8291 301.27814Q140.68848 301.4969 140.68848 301.77814Q140.68848 302.2 141.00098 302.48126Q141.3291 302.7625 141.93848 302.7625Q142.54785 302.7625 143.0166 302.4969Q143.50098 302.23126 143.71973 301.7625Q143.8916 301.40314 143.8916 300.71564L143.8916 300.325ZM146.8916 303.45L146.8916 294.85626L147.9541 294.85626L147.9541 303.45L146.8916 303.45ZM152.21973 302.5125L152.37598 303.4344Q151.92285 303.52814 151.5791 303.52814Q151.00098 303.52814 150.68848 303.35626Q150.37598 303.16876 150.23535 302.8719Q150.11035 302.575 150.11035 301.6219L150.11035 298.04376L149.34473 298.04376L149.34473 297.23126L150.11035 297.23126L150.11035 295.6844L151.15723 295.0594L151.15723 297.23126L152.21973 297.23126L152.21973 298.04376L151.15723 298.04376L151.15723 301.6844Q151.15723 302.1375 151.2041 302.2625Q151.2666 302.3875 151.3916 302.46564Q151.5166 302.54376 151.75098 302.54376Q151.93848 302.54376 152.21973 302.5125ZM152.92285 303.45L152.92285 294.85626L153.96973 294.85626L153.96973 297.9344Q154.7041 297.09064 155.8291 297.09064Q156.53223 297.09064 157.03223 297.3719Q157.54785 297.6375 157.7666 298.1219Q157.98535 298.59064 157.98535 299.5125L157.98535 303.45L156.93848 303.45L156.93848 299.5125Q156.93848 298.71564 156.59473 298.35626Q156.25098 297.9969 155.62598 297.9969Q155.15723 297.9969 154.73535 298.2469Q154.3291 298.48126 154.1416 298.90314Q153.96973 299.3094 153.96973 300.04376L153.96973 303.45L152.92285 303.45ZM159.87598 305.84064L159.75098 304.85626Q160.09473 304.95 160.36035 304.95Q160.7041 304.95 160.90723 304.825Q161.12598 304.71564 161.2666 304.5125Q161.36035 304.34064 161.59473 303.71564Q161.61035 303.6375 161.68848 303.46564L159.31348 297.23126L160.4541 297.23126L161.75098 300.825Q162.00098 301.5125 162.2041 302.27814Q162.3916 301.54376 162.6416 300.85626L163.96973 297.23126L165.0166 297.23126L162.65723 303.5594Q162.2666 304.575 162.06348 304.96564Q161.78223 305.4969 161.40723 305.73126Q161.04785 305.98126 160.54785 305.98126Q160.25098 305.98126 159.87598 305.84064Z" fill-rule="nonzero"/><path fill="#000000" d="M201.69746 303.45L201.69746 294.85626L202.85371 294.85626L207.36934 301.60626L207.36934 294.85626L208.46309 294.85626L208.46309 303.45L207.29121 303.45L202.77559 296.7L202.77559 303.45L201.69746 303.45ZM210.18184 300.34064Q210.18184 298.60626 211.13496 297.77814Q211.93184 297.09064 213.08809 297.09064Q214.36934 297.09064 215.18184 297.9344Q216.00996 298.7625 216.00996 300.2469Q216.00996 301.45 215.65059 302.1375Q215.29121 302.825 214.58809 303.21564Q213.90059 303.59064 213.08809 303.59064Q211.79121 303.59064 210.97871 302.7625Q210.18184 301.91876 210.18184 300.34064ZM211.25996 300.34064Q211.25996 301.52814 211.77559 302.1219Q212.30684 302.71564 213.08809 302.71564Q213.88496 302.71564 214.40059 302.1219Q214.91621 301.52814 214.91621 300.3094Q214.91621 299.15314 214.38496 298.5594Q213.86934 297.96564 213.08809 297.96564Q212.30684 297.96564 211.77559 298.5594Q211.25996 299.1375 211.25996 300.34064ZM221.60371 303.45L221.60371 302.66876Q221.00996 303.59064 219.86934 303.59064Q219.11934 303.59064 218.49434 303.1844Q217.86934 302.7625 217.52559 302.02814Q217.18184 301.29376 217.18184 300.34064Q217.18184 299.41876 217.49434 298.65314Q217.80684 297.8875 218.43184 297.4969Q219.05684 297.09064 219.82246 297.09064Q220.38496 297.09064 220.82246 297.325Q221.25996 297.5594 221.54121 297.9344L221.54121 294.85626L222.58809 294.85626L222.58809 303.45L221.60371 303.45ZM218.27559 300.34064Q218.27559 301.54376 218.77559 302.1375Q219.27559 302.71564 219.96309 302.71564Q220.65059 302.71564 221.13496 302.15314Q221.61934 301.59064 221.61934 300.4344Q221.61934 299.15314 221.11934 298.5594Q220.63496 297.96564 219.91621 297.96564Q219.21309 297.96564 218.74434 298.54376Q218.27559 299.10626 218.27559 300.34064ZM228.65059 303.45L228.65059 302.52814Q227.91621 303.59064 226.66621 303.59064Q226.11934 303.59064 225.63496 303.3875Q225.16621 303.16876 224.93184 302.85626Q224.69746 302.52814 224.60371 302.0594Q224.54121 301.7625 224.54121 301.075L224.54121 297.23126L225.60371 297.23126L225.60371 300.6844Q225.60371 301.4969 225.66621 301.79376Q225.75996 302.2 226.07246 302.45Q226.40059 302.6844 226.88496 302.6844Q227.35371 302.6844 227.75996 302.45Q228.18184 302.2 228.35371 301.77814Q228.54121 301.35626 228.54121 300.5594L228.54121 297.23126L229.58809 297.23126L229.58809 303.45L228.65059 303.45ZM231.54121 303.45L231.54121 294.85626L232.60371 294.85626L232.60371 303.45L231.54121 303.45ZM238.82246 301.45L239.91621 301.575Q239.66621 302.52814 238.96309 303.0594Q238.25996 303.59064 237.18184 303.59064Q235.82246 303.59064 235.00996 302.7469Q234.21309 301.90314 234.21309 300.3875Q234.21309 298.825 235.02559 297.96564Q235.83809 297.09064 237.11934 297.09064Q238.36934 297.09064 239.15059 297.9344Q239.94746 298.77814 239.94746 300.325Q239.94746 300.41876 239.94746 300.60626L235.30684 300.60626Q235.36934 301.6375 235.88496 302.1844Q236.40059 302.71564 237.18184 302.71564Q237.75996 302.71564 238.16621 302.41876Q238.58809 302.10626 238.82246 301.45ZM235.36934 299.7469L238.83809 299.7469Q238.77559 298.95 238.44746 298.5594Q237.93184 297.95 237.13496 297.95Q236.40059 297.95 235.90059 298.4344Q235.41621 298.91876 235.36934 299.7469Z" fill-rule="nonzero"/><path fill="#000000" d="M277.39395 303.45L276.34708 303.45L276.34708 296.73126Q275.95645 297.09064 275.33145 297.46564Q274.72208 297.825 274.2377 297.9969L274.2377 296.98126Q275.1127 296.5594 275.76895 295.98126Q276.44083 295.3875 276.72208 294.825L277.39395 294.825L277.39395 303.45ZM283.84708 303.45L283.84708 294.85626L285.00333 294.85626L289.51895 301.60626L289.51895 294.85626L290.6127 294.85626L290.6127 303.45L289.44083 303.45L284.9252 296.7L284.9252 303.45L283.84708 303.45ZM292.33145 300.34064Q292.33145 298.60626 293.28458 297.77814Q294.08145 297.09064 295.2377 297.09064Q296.51895 297.09064 297.33145 297.9344Q298.15958 298.7625 298.15958 300.2469Q298.15958 301.45 297.8002 302.1375Q297.44083 302.825 296.7377 303.21564Q296.0502 303.59064 295.2377 303.59064Q293.94083 303.59064 293.12833 302.7625Q292.33145 301.91876 292.33145 300.34064ZM293.40958 300.34064Q293.40958 301.52814 293.9252 302.1219Q294.45645 302.71564 295.2377 302.71564Q296.03458 302.71564 296.5502 302.1219Q297.06583 301.52814 297.06583 300.3094Q297.06583 299.15314 296.53458 298.5594Q296.01895 297.96564 295.2377 297.96564Q294.45645 297.96564 293.9252 298.5594Q293.40958 299.1375 293.40958 300.34064ZM303.75333 303.45L303.75333 302.66876Q303.15958 303.59064 302.01895 303.59064Q301.26895 303.59064 300.64395 303.1844Q300.01895 302.7625 299.6752 302.02814Q299.33145 301.29376 299.33145 300.34064Q299.33145 299.41876 299.64395 298.65314Q299.95645 297.8875 300.58145 297.4969Q301.20645 297.09064 301.97208 297.09064Q302.53458 297.09064 302.97208 297.325Q303.40958 297.5594 303.69083 297.9344L303.69083 294.85626L304.7377 294.85626L304.7377 303.45L303.75333 303.45ZM300.4252 300.34064Q300.4252 301.54376 300.9252 302.1375Q301.4252 302.71564 302.1127 302.71564Q302.8002 302.71564 303.28458 302.15314Q303.76895 301.59064 303.76895 300.4344Q303.76895 299.15314 303.26895 298.5594Q302.78458 297.96564 302.06583 297.96564Q301.3627 297.96564 300.89395 298.54376Q300.4252 299.10626 300.4252 300.34064ZM310.8002 303.45L310.8002 302.52814Q310.06583 303.59064 308.81583 303.59064Q308.26895 303.59064 307.78458 303.3875Q307.31583 303.16876 307.08145 302.85626Q306.84708 302.52814 306.75333 302.0594Q306.69083 301.7625 306.69083 301.075L306.69083 297.23126L307.75333 297.23126L307.75333 300.6844Q307.75333 301.4969 307.81583 301.79376Q307.90958 302.2 308.22208 302.45Q308.5502 302.6844 309.03458 302.6844Q309.50333 302.6844 309.90958 302.45Q310.33145 302.2 310.50333 301.77814Q310.69083 301.35626 310.69083 300.5594L310.69083 297.23126L311.7377 297.23126L311.7377 303.45L310.8002 303.45ZM313.69083 303.45L313.69083 294.85626L314.75333 294.85626L314.75333 303.45L313.69083 303.45ZM320.97208 301.45L322.06583 301.575Q321.81583 302.52814 321.1127 303.0594Q320.40958 303.59064 319.33145 303.59064Q317.97208 303.59064 317.15958 302.7469Q316.3627 301.90314 316.3627 300.3875Q316.3627 298.825 317.1752 297.96564Q317.9877 297.09064 319.26895 297.09064Q320.51895 297.09064 321.3002 297.9344Q322.09708 298.77814 322.09708 300.325Q322.09708 300.41876 322.09708 300.60626L317.45645 300.60626Q317.51895 301.6375 318.03458 302.1844Q318.5502 302.71564 319.33145 302.71564Q319.90958 302.71564 320.31583 302.41876Q320.7377 302.10626 320.97208 301.45ZM317.51895 299.7469L320.9877 299.7469Q320.9252 298.95 320.59708 298.5594Q320.08145 297.95 319.28458 297.95Q318.5502 297.95 318.0502 298.4344Q317.56583 298.91876 317.51895 299.7469Z" fill-rule="nonzero"/><path fill="#000000" d="M272.8002 317.45L272.8002 308.85626L273.94083 308.85626L273.94083 316.4344L278.1752 316.4344L278.1752 317.45L272.8002 317.45ZM279.33145 314.34064Q279.33145 312.60626 280.28458 311.77814Q281.08145 311.09064 282.2377 311.09064Q283.51895 311.09064 284.33145 311.9344Q285.15958 312.7625 285.15958 314.2469Q285.15958 315.45 284.8002 316.1375Q284.44083 316.825 283.7377 317.21564Q283.0502 317.59064 282.2377 317.59064Q280.94083 317.59064 280.12833 316.7625Q279.33145 315.91876 279.33145 314.34064ZM280.40958 314.34064Q280.40958 315.52814 280.9252 316.1219Q281.45645 316.71564 282.2377 316.71564Q283.03458 316.71564 283.5502 316.1219Q284.06583 315.52814 284.06583 314.3094Q284.06583 313.15314 283.53458 312.5594Q283.01895 311.96564 282.2377 311.96564Q281.45645 311.96564 280.9252 312.5594Q280.40958 313.1375 280.40958 314.34064ZM290.78458 315.16876L291.81583 315.3094Q291.64395 316.3719 290.94083 316.98126Q290.2377 317.59064 289.22208 317.59064Q287.94083 317.59064 287.15958 316.7625Q286.39395 315.91876 286.39395 314.35626Q286.39395 313.35626 286.72208 312.60626Q287.06583 311.84064 287.7377 311.46564Q288.4252 311.09064 289.2377 311.09064Q290.2377 311.09064 290.87833 311.60626Q291.53458 312.10626 291.72208 313.0594L290.69083 313.21564Q290.5502 312.59064 290.1752 312.27814Q289.8002 311.95 289.26895 311.95Q288.47208 311.95 287.97208 312.52814Q287.47208 313.09064 287.47208 314.325Q287.47208 315.59064 287.95645 316.15314Q288.44083 316.71564 289.20645 316.71564Q289.83145 316.71564 290.2377 316.34064Q290.65958 315.96564 290.78458 315.16876ZM296.78458 316.6844Q296.19083 317.1844 295.64395 317.3875Q295.1127 317.59064 294.4877 317.59064Q293.45645 317.59064 292.90958 317.09064Q292.3627 316.59064 292.3627 315.8094Q292.3627 315.35626 292.56583 314.98126Q292.76895 314.59064 293.1127 314.3719Q293.45645 314.1375 293.87833 314.02814Q294.1752 313.9344 294.81583 313.85626Q296.08145 313.71564 296.69083 313.4969Q296.69083 313.27814 296.69083 313.23126Q296.69083 312.575 296.39395 312.3094Q295.9877 311.96564 295.19083 311.96564Q294.45645 311.96564 294.09708 312.23126Q293.7377 312.48126 293.56583 313.1375L292.53458 312.9969Q292.6752 312.34064 293.00333 311.9344Q293.33145 311.52814 293.94083 311.3094Q294.5502 311.09064 295.34708 311.09064Q296.14395 311.09064 296.64395 311.27814Q297.14395 311.46564 297.37833 311.7469Q297.6127 312.02814 297.70645 312.46564Q297.75333 312.73126 297.75333 313.4344L297.75333 314.84064Q297.75333 316.3094 297.81583 316.7Q297.89395 317.09064 298.09708 317.45L296.9877 317.45Q296.83145 317.1219 296.78458 316.6844ZM296.69083 314.325Q296.1127 314.5594 294.97208 314.73126Q294.31583 314.825 294.0502 314.95Q293.78458 315.0594 293.62833 315.27814Q293.4877 315.4969 293.4877 315.77814Q293.4877 316.2 293.8002 316.48126Q294.12833 316.7625 294.7377 316.7625Q295.34708 316.7625 295.81583 316.4969Q296.3002 316.23126 296.51895 315.7625Q296.69083 315.40314 296.69083 314.71564L296.69083 314.325ZM299.69083 317.45L299.69083 308.85626L300.75333 308.85626L300.75333 317.45L299.69083 317.45ZM302.72208 310.075L302.72208 308.85626L303.78458 308.85626L303.78458 310.075L302.72208 310.075ZM302.72208 317.45L302.72208 311.23126L303.78458 311.23126L303.78458 317.45L302.72208 317.45ZM305.15958 317.45L305.15958 316.59064L309.12833 312.04376Q308.44083 312.075 307.9252 312.075L305.39395 312.075L305.39395 311.23126L310.4877 311.23126L310.4877 311.91876L307.1127 315.8719L306.45645 316.59064Q307.1752 316.54376 307.78458 316.54376L310.6752 316.54376L310.6752 317.45L305.15958 317.45ZM314.97208 315.45L316.06583 315.575Q315.81583 316.52814 315.1127 317.0594Q314.40958 317.59064 313.33145 317.59064Q311.97208 317.59064 311.15958 316.7469Q310.3627 315.90314 310.3627 314.3875Q310.3627 312.825 311.1752 311.96564Q311.9877 311.09064 313.26895 311.09064Q314.51895 311.09064 315.3002 311.9344Q316.09708 312.77814 316.09708 314.325Q316.09708 314.41876 316.09708 314.60626L311.45645 314.60626Q311.51895 315.6375 312.03458 316.1844Q312.5502 316.71564 313.33145 316.71564Q313.90958 316.71564 314.31583 316.41876Q314.7377 316.10626 314.97208 315.45ZM311.51895 313.7469L314.9877 313.7469Q314.9252 312.95 314.59708 312.5594Q314.08145 311.95 313.28458 311.95Q312.5502 311.95 312.0502 312.4344Q311.56583 312.91876 311.51895 313.7469ZM321.75333 317.45L321.75333 316.66876Q321.15958 317.59064 320.01895 317.59064Q319.26895 317.59064 318.64395 317.1844Q318.01895 316.7625 317.6752 316.02814Q317.33145 315.29376 317.33145 314.34064Q317.33145 313.41876 317.64395 312.65314Q317.95645 311.8875 318.58145 311.4969Q319.20645 311.09064 319.97208 311.09064Q320.53458 311.09064 320.97208 311.325Q321.40958 311.5594 321.69083 311.9344L321.69083 308.85626L322.7377 308.85626L322.7377 317.45L321.75333 317.45ZM318.4252 314.34064Q318.4252 315.54376 318.9252 316.1375Q319.4252 316.71564 320.1127 316.71564Q320.8002 316.71564 321.28458 316.15314Q321.76895 315.59064 321.76895 314.4344Q321.76895 313.15314 321.26895 312.5594Q320.78458 311.96564 320.06583 311.96564Q319.3627 311.96564 318.89395 312.54376Q318.4252 313.10626 318.4252 314.34064Z" fill-rule="nonzero"/><path fill="#000000" d="M352.62167 302.4344L352.62167 303.45L346.93417 303.45Q346.93417 303.075 347.05917 302.71564Q347.27792 302.1375 347.74667 301.575Q348.23105 301.0125 349.1373 300.27814Q350.54355 299.1219 351.02792 298.45Q351.52792 297.77814 351.52792 297.1844Q351.52792 296.5594 351.0748 296.1375Q350.62167 295.7 349.90292 295.7Q349.1373 295.7 348.68417 296.15314Q348.23105 296.60626 348.21542 297.41876L347.1373 297.3094Q347.24667 296.09064 347.96542 295.46564Q348.6998 294.825 349.93417 294.825Q351.16855 294.825 351.8873 295.5125Q352.60605 296.2 352.60605 297.21564Q352.60605 297.73126 352.3873 298.23126Q352.18417 298.71564 351.68417 299.27814Q351.1998 299.825 350.0748 300.77814Q349.12167 301.575 348.84042 301.8719Q348.5748 302.15314 348.40292 302.4344L352.62167 302.4344ZM357.49667 303.45L357.49667 294.85626L358.65292 294.85626L363.16855 301.60626L363.16855 294.85626L364.2623 294.85626L364.2623 303.45L363.09042 303.45L358.5748 296.7L358.5748 303.45L357.49667 303.45ZM365.98105 300.34064Q365.98105 298.60626 366.93417 297.77814Q367.73105 297.09064 368.8873 297.09064Q370.16855 297.09064 370.98105 297.9344Q371.80917 298.7625 371.80917 300.2469Q371.80917 301.45 371.4498 302.1375Q371.09042 302.825 370.3873 303.21564Q369.6998 303.59064 368.8873 303.59064Q367.59042 303.59064 366.77792 302.7625Q365.98105 301.91876 365.98105 300.34064ZM367.05917 300.34064Q367.05917 301.52814 367.5748 302.1219Q368.10605 302.71564 368.8873 302.71564Q369.68417 302.71564 370.1998 302.1219Q370.71542 301.52814 370.71542 300.3094Q370.71542 299.15314 370.18417 298.5594Q369.66855 297.96564 368.8873 297.96564Q368.10605 297.96564 367.5748 298.5594Q367.05917 299.1375 367.05917 300.34064ZM377.40292 303.45L377.40292 302.66876Q376.80917 303.59064 375.66855 303.59064Q374.91855 303.59064 374.29355 303.1844Q373.66855 302.7625 373.3248 302.02814Q372.98105 301.29376 372.98105 300.34064Q372.98105 299.41876 373.29355 298.65314Q373.60605 297.8875 374.23105 297.4969Q374.85605 297.09064 375.62167 297.09064Q376.18417 297.09064 376.62167 297.325Q377.05917 297.5594 377.34042 297.9344L377.34042 294.85626L378.3873 294.85626L378.3873 303.45L377.40292 303.45ZM374.0748 300.34064Q374.0748 301.54376 374.5748 302.1375Q375.0748 302.71564 375.7623 302.71564Q376.4498 302.71564 376.93417 302.15314Q377.41855 301.59064 377.41855 300.4344Q377.41855 299.15314 376.91855 298.5594Q376.43417 297.96564 375.71542 297.96564Q375.0123 297.96564 374.54355 298.54376Q374.0748 299.10626 374.0748 300.34064ZM384.4498 303.45L384.4498 302.52814Q383.71542 303.59064 382.46542 303.59064Q381.91855 303.59064 381.43417 303.3875Q380.96542 303.16876 380.73105 302.85626Q380.49667 302.52814 380.40292 302.0594Q380.34042 301.7625 380.34042 301.075L380.34042 297.23126L381.40292 297.23126L381.40292 300.6844Q381.40292 301.4969 381.46542 301.79376Q381.55917 302.2 381.87167 302.45Q382.1998 302.6844 382.68417 302.6844Q383.15292 302.6844 383.55917 302.45Q383.98105 302.2 384.15292 301.77814Q384.34042 301.35626 384.34042 300.5594L384.34042 297.23126L385.3873 297.23126L385.3873 303.45L384.4498 303.45ZM387.34042 303.45L387.34042 294.85626L388.40292 294.85626L388.40292 303.45L387.34042 303.45ZM394.62167 301.45L395.71542 301.575Q395.46542 302.52814 394.7623 303.0594Q394.05917 303.59064 392.98105 303.59064Q391.62167 303.59064 390.80917 302.7469Q390.0123 301.90314 390.0123 300.3875Q390.0123 298.825 390.8248 297.96564Q391.6373 297.09064 392.91855 297.09064Q394.16855 297.09064 394.9498 297.9344Q395.74667 298.77814 395.74667 300.325Q395.74667 300.41876 395.74667 300.60626L391.10605 300.60626Q391.16855 301.6375 391.68417 302.1844Q392.1998 302.71564 392.98105 302.71564Q393.55917 302.71564 393.96542 302.41876Q394.3873 302.10626 394.62167 301.45ZM391.16855 299.7469L394.6373 299.7469Q394.5748 298.95 394.24667 298.5594Q393.73105 297.95 392.93417 297.95Q392.1998 297.95 391.6998 298.4344Q391.21542 298.91876 391.16855 299.7469ZM396.9498 301.59064L397.98105 301.4344Q398.0748 302.0594 398.46542 302.3875Q398.87167 302.71564 399.60605 302.71564Q400.3248 302.71564 400.66855 302.4344Q401.02792 302.1375 401.02792 301.73126Q401.02792 301.3719 400.71542 301.16876Q400.49667 301.02814 399.6373 300.8094Q398.48105 300.5125 398.02792 300.3094Q397.59042 300.09064 397.35605 299.71564Q397.12167 299.34064 397.12167 298.8719Q397.12167 298.46564 397.30917 298.10626Q397.49667 297.7469 397.8248 297.5125Q398.0748 297.34064 398.49667 297.21564Q398.91855 297.09064 399.41855 297.09064Q400.1373 297.09064 400.68417 297.3094Q401.24667 297.5125 401.5123 297.8719Q401.77792 298.23126 401.87167 298.825L400.84042 298.96564Q400.77792 298.4969 400.43417 298.23126Q400.10605 297.95 399.48105 297.95Q398.7623 297.95 398.4498 298.2Q398.1373 298.4344 398.1373 298.7625Q398.1373 298.96564 398.2623 299.1219Q398.40292 299.29376 398.66855 299.40314Q398.8248 299.46564 399.60605 299.66876Q400.73105 299.98126 401.16855 300.16876Q401.60605 300.35626 401.85605 300.71564Q402.10605 301.075 402.10605 301.6219Q402.10605 302.15314 401.79355 302.6219Q401.49667 303.075 400.91855 303.34064Q400.34042 303.59064 399.60605 303.59064Q398.3873 303.59064 397.74667 303.09064Q397.12167 302.575 396.9498 301.59064Z" fill-rule="nonzero"/><path fill="#000000" d="M349.9498 317.45L349.9498 308.85626L351.09042 308.85626L351.09042 316.4344L355.3248 316.4344L355.3248 317.45L349.9498 317.45ZM356.48105 314.34064Q356.48105 312.60626 357.43417 311.77814Q358.23105 311.09064 359.3873 311.09064Q360.66855 311.09064 361.48105 311.9344Q362.30917 312.7625 362.30917 314.2469Q362.30917 315.45 361.9498 316.1375Q361.59042 316.825 360.8873 317.21564Q360.1998 317.59064 359.3873 317.59064Q358.09042 317.59064 357.27792 316.7625Q356.48105 315.91876 356.48105 314.34064ZM357.55917 314.34064Q357.55917 315.52814 358.0748 316.1219Q358.60605 316.71564 359.3873 316.71564Q360.18417 316.71564 360.6998 316.1219Q361.21542 315.52814 361.21542 314.3094Q361.21542 313.15314 360.68417 312.5594Q360.16855 311.96564 359.3873 311.96564Q358.60605 311.96564 358.0748 312.5594Q357.55917 313.1375 357.55917 314.34064ZM367.93417 315.16876L368.96542 315.3094Q368.79355 316.3719 368.09042 316.98126Q367.3873 317.59064 366.37167 317.59064Q365.09042 317.59064 364.30917 316.7625Q363.54355 315.91876 363.54355 314.35626Q363.54355 313.35626 363.87167 312.60626Q364.21542 311.84064 364.8873 311.46564Q365.5748 311.09064 366.3873 311.09064Q367.3873 311.09064 368.02792 311.60626Q368.68417 312.10626 368.87167 313.0594L367.84042 313.21564Q367.6998 312.59064 367.3248 312.27814Q366.9498 311.95 366.41855 311.95Q365.62167 311.95 365.12167 312.52814Q364.62167 313.09064 364.62167 314.325Q364.62167 315.59064 365.10605 316.15314Q365.59042 316.71564 366.35605 316.71564Q366.98105 316.71564 367.3873 316.34064Q367.80917 315.96564 367.93417 315.16876ZM373.93417 316.6844Q373.34042 317.1844 372.79355 317.3875Q372.2623 317.59064 371.6373 317.59064Q370.60605 317.59064 370.05917 317.09064Q369.5123 316.59064 369.5123 315.8094Q369.5123 315.35626 369.71542 314.98126Q369.91855 314.59064 370.2623 314.3719Q370.60605 314.1375 371.02792 314.02814Q371.3248 313.9344 371.96542 313.85626Q373.23105 313.71564 373.84042 313.4969Q373.84042 313.27814 373.84042 313.23126Q373.84042 312.575 373.54355 312.3094Q373.1373 311.96564 372.34042 311.96564Q371.60605 311.96564 371.24667 312.23126Q370.8873 312.48126 370.71542 313.1375L369.68417 312.9969Q369.8248 312.34064 370.15292 311.9344Q370.48105 311.52814 371.09042 311.3094Q371.6998 311.09064 372.49667 311.09064Q373.29355 311.09064 373.79355 311.27814Q374.29355 311.46564 374.52792 311.7469Q374.7623 312.02814 374.85605 312.46564Q374.90292 312.73126 374.90292 313.4344L374.90292 314.84064Q374.90292 316.3094 374.96542 316.7Q375.04355 317.09064 375.24667 317.45L374.1373 317.45Q373.98105 317.1219 373.93417 316.6844ZM373.84042 314.325Q373.2623 314.5594 372.12167 314.73126Q371.46542 314.825 371.1998 314.95Q370.93417 315.0594 370.77792 315.27814Q370.6373 315.4969 370.6373 315.77814Q370.6373 316.2 370.9498 316.48126Q371.27792 316.7625 371.8873 316.7625Q372.49667 316.7625 372.96542 316.4969Q373.4498 316.23126 373.66855 315.7625Q373.84042 315.40314 373.84042 314.71564L373.84042 314.325ZM376.84042 317.45L376.84042 308.85626L377.90292 308.85626L377.90292 317.45L376.84042 317.45ZM379.87167 310.075L379.87167 308.85626L380.93417 308.85626L380.93417 310.075L379.87167 310.075ZM379.87167 317.45L379.87167 311.23126L380.93417 311.23126L380.93417 317.45L379.87167 317.45ZM382.30917 317.45L382.30917 316.59064L386.27792 312.04376Q385.59042 312.075 385.0748 312.075L382.54355 312.075L382.54355 311.23126L387.6373 311.23126L387.6373 311.91876L384.2623 315.8719L383.60605 316.59064Q384.3248 316.54376 384.93417 316.54376L387.8248 316.54376L387.8248 317.45L382.30917 317.45ZM392.12167 315.45L393.21542 315.575Q392.96542 316.52814 392.2623 317.0594Q391.55917 317.59064 390.48105 317.59064Q389.12167 317.59064 388.30917 316.7469Q387.5123 315.90314 387.5123 314.3875Q387.5123 312.825 388.3248 311.96564Q389.1373 311.09064 390.41855 311.09064Q391.66855 311.09064 392.4498 311.9344Q393.24667 312.77814 393.24667 314.325Q393.24667 314.41876 393.24667 314.60626L388.60605 314.60626Q388.66855 315.6375 389.18417 316.1844Q389.6998 316.71564 390.48105 316.71564Q391.05917 316.71564 391.46542 316.41876Q391.8873 316.10626 392.12167 315.45ZM388.66855 313.7469L392.1373 313.7469Q392.0748 312.95 391.74667 312.5594Q391.23105 311.95 390.43417 311.95Q389.6998 311.95 389.1998 312.4344Q388.71542 312.91876 388.66855 313.7469ZM398.90292 317.45L398.90292 316.66876Q398.30917 317.59064 397.16855 317.59064Q396.41855 317.59064 395.79355 317.1844Q395.16855 316.7625 394.8248 316.02814Q394.48105 315.29376 394.48105 314.34064Q394.48105 313.41876 394.79355 312.65314Q395.10605 311.8875 395.73105 311.4969Q396.35605 311.09064 397.12167 311.09064Q397.68417 311.09064 398.12167 311.325Q398.55917 311.5594 398.84042 311.9344L398.84042 308.85626L399.8873 308.85626L399.8873 317.45L398.90292 317.45ZM395.5748 314.34064Q395.5748 315.54376 396.0748 316.1375Q396.5748 316.71564 397.2623 316.71564Q397.9498 316.71564 398.43417 316.15314Q398.91855 315.59064 398.91855 314.4344Q398.91855 313.15314 398.41855 312.5594Q397.93417 311.96564 397.21542 311.96564Q396.5123 311.96564 396.04355 312.54376Q395.5748 313.10626 395.5748 314.34064Z" fill-rule="nonzero"/><path fill="#000000" d="M424.2244 301.1844L425.2869 301.04376Q425.45877 301.9344 425.89627 302.34064Q426.33377 302.73126 426.95877 302.73126Q427.70877 302.73126 428.2244 302.21564Q428.74002 301.7 428.74002 300.9344Q428.74002 300.21564 428.25565 299.7469Q427.7869 299.2625 427.05252 299.2625Q426.75565 299.2625 426.30252 299.3875L426.42752 298.45Q426.5369 298.46564 426.5994 298.46564Q427.27127 298.46564 427.80252 298.1219Q428.3494 297.7625 428.3494 297.02814Q428.3494 296.45 427.95877 296.075Q427.56815 295.6844 426.94315 295.6844Q426.33377 295.6844 425.9119 296.075Q425.50565 296.46564 425.39627 297.23126L424.33377 297.04376Q424.52127 295.9969 425.20877 295.41876Q425.89627 294.825 426.9119 294.825Q427.61502 294.825 428.20877 295.1375Q428.80252 295.4344 429.11502 295.95Q429.42752 296.46564 429.42752 297.0594Q429.42752 297.60626 429.13065 298.075Q428.83377 298.52814 428.25565 298.79376Q429.00565 298.96564 429.42752 299.52814Q429.8494 300.075 429.8494 300.91876Q429.8494 302.04376 429.02127 302.825Q428.20877 303.60626 426.95877 303.60626Q425.83377 303.60626 425.08377 302.9344Q424.33377 302.2469 424.2244 301.1844ZM434.64627 303.45L434.64627 294.85626L435.80252 294.85626L440.31815 301.60626L440.31815 294.85626L441.4119 294.85626L441.4119 303.45L440.24002 303.45L435.7244 296.7L435.7244 303.45L434.64627 303.45ZM443.13065 300.34064Q443.13065 298.60626 444.08377 297.77814Q444.88065 297.09064 446.0369 297.09064Q447.31815 297.09064 448.13065 297.9344Q448.95877 298.7625 448.95877 300.2469Q448.95877 301.45 448.5994 302.1375Q448.24002 302.825 447.5369 303.21564Q446.8494 303.59064 446.0369 303.59064Q444.74002 303.59064 443.92752 302.7625Q443.13065 301.91876 443.13065 300.34064ZM444.20877 300.34064Q444.20877 301.52814 444.7244 302.1219Q445.25565 302.71564 446.0369 302.71564Q446.83377 302.71564 447.3494 302.1219Q447.86502 301.52814 447.86502 300.3094Q447.86502 299.15314 447.33377 298.5594Q446.81815 297.96564 446.0369 297.96564Q445.25565 297.96564 444.7244 298.5594Q444.20877 299.1375 444.20877 300.34064ZM454.55252 303.45L454.55252 302.66876Q453.95877 303.59064 452.81815 303.59064Q452.06815 303.59064 451.44315 303.1844Q450.81815 302.7625 450.4744 302.02814Q450.13065 301.29376 450.13065 300.34064Q450.13065 299.41876 450.44315 298.65314Q450.75565 297.8875 451.38065 297.4969Q452.00565 297.09064 452.77127 297.09064Q453.33377 297.09064 453.77127 297.325Q454.20877 297.5594 454.49002 297.9344L454.49002 294.85626L455.5369 294.85626L455.5369 303.45L454.55252 303.45ZM451.2244 300.34064Q451.2244 301.54376 451.7244 302.1375Q452.2244 302.71564 452.9119 302.71564Q453.5994 302.71564 454.08377 302.15314Q454.56815 301.59064 454.56815 300.4344Q454.56815 299.15314 454.06815 298.5594Q453.58377 297.96564 452.86502 297.96564Q452.1619 297.96564 451.69315 298.54376Q451.2244 299.10626 451.2244 300.34064ZM461.5994 303.45L461.5994 302.52814Q460.86502 303.59064 459.61502 303.59064Q459.06815 303.59064 458.58377 303.3875Q458.11502 303.16876 457.88065 302.85626Q457.64627 302.52814 457.55252 302.0594Q457.49002 301.7625 457.49002 301.075L457.49002 297.23126L458.55252 297.23126L458.55252 300.6844Q458.55252 301.4969 458.61502 301.79376Q458.70877 302.2 459.02127 302.45Q459.3494 302.6844 459.83377 302.6844Q460.30252 302.6844 460.70877 302.45Q461.13065 302.2 461.30252 301.77814Q461.49002 301.35626 461.49002 300.5594L461.49002 297.23126L462.5369 297.23126L462.5369 303.45L461.5994 303.45ZM464.49002 303.45L464.49002 294.85626L465.55252 294.85626L465.55252 303.45L464.49002 303.45ZM471.77127 301.45L472.86502 301.575Q472.61502 302.52814 471.9119 303.0594Q471.20877 303.59064 470.13065 303.59064Q468.77127 303.59064 467.95877 302.7469Q467.1619 301.90314 467.1619 300.3875Q467.1619 298.825 467.9744 297.96564Q468.7869 297.09064 470.06815 297.09064Q471.31815 297.09064 472.0994 297.9344Q472.89627 298.77814 472.89627 300.325Q472.89627 300.41876 472.89627 300.60626L468.25565 300.60626Q468.31815 301.6375 468.83377 302.1844Q469.3494 302.71564 470.13065 302.71564Q470.70877 302.71564 471.11502 302.41876Q471.5369 302.10626 471.77127 301.45ZM468.31815 299.7469L471.7869 299.7469Q471.7244 298.95 471.39627 298.5594Q470.88065 297.95 470.08377 297.95Q469.3494 297.95 468.8494 298.4344Q468.36502 298.91876 468.31815 299.7469ZM474.0994 301.59064L475.13065 301.4344Q475.2244 302.0594 475.61502 302.3875Q476.02127 302.71564 476.75565 302.71564Q477.4744 302.71564 477.81815 302.4344Q478.17752 302.1375 478.17752 301.73126Q478.17752 301.3719 477.86502 301.16876Q477.64627 301.02814 476.7869 300.8094Q475.63065 300.5125 475.17752 300.3094Q474.74002 300.09064 474.50565 299.71564Q474.27127 299.34064 474.27127 298.8719Q474.27127 298.46564 474.45877 298.10626Q474.64627 297.7469 474.9744 297.5125Q475.2244 297.34064 475.64627 297.21564Q476.06815 297.09064 476.56815 297.09064Q477.2869 297.09064 477.83377 297.3094Q478.39627 297.5125 478.6619 297.8719Q478.92752 298.23126 479.02127 298.825L477.99002 298.96564Q477.92752 298.4969 477.58377 298.23126Q477.25565 297.95 476.63065 297.95Q475.9119 297.95 475.5994 298.2Q475.2869 298.4344 475.2869 298.7625Q475.2869 298.96564 475.4119 299.1219Q475.55252 299.29376 475.81815 299.40314Q475.9744 299.46564 476.75565 299.66876Q477.88065 299.98126 478.31815 300.16876Q478.75565 300.35626 479.00565 300.71564Q479.25565 301.075 479.25565 301.6219Q479.25565 302.15314 478.94315 302.6219Q478.64627 303.075 478.06815 303.34064Q477.49002 303.59064 476.75565 303.59064Q475.5369 303.59064 474.89627 303.09064Q474.27127 302.575 474.0994 301.59064Z" fill-rule="nonzero"/><path fill="#000000" d="M427.0994 317.45L427.0994 308.85626L428.24002 308.85626L428.24002 316.4344L432.4744 316.4344L432.4744 317.45L427.0994 317.45ZM433.63065 314.34064Q433.63065 312.60626 434.58377 311.77814Q435.38065 311.09064 436.5369 311.09064Q437.81815 311.09064 438.63065 311.9344Q439.45877 312.7625 439.45877 314.2469Q439.45877 315.45 439.0994 316.1375Q438.74002 316.825 438.0369 317.21564Q437.3494 317.59064 436.5369 317.59064Q435.24002 317.59064 434.42752 316.7625Q433.63065 315.91876 433.63065 314.34064ZM434.70877 314.34064Q434.70877 315.52814 435.2244 316.1219Q435.75565 316.71564 436.5369 316.71564Q437.33377 316.71564 437.8494 316.1219Q438.36502 315.52814 438.36502 314.3094Q438.36502 313.15314 437.83377 312.5594Q437.31815 311.96564 436.5369 311.96564Q435.75565 311.96564 435.2244 312.5594Q434.70877 313.1375 434.70877 314.34064ZM445.08377 315.16876L446.11502 315.3094Q445.94315 316.3719 445.24002 316.98126Q444.5369 317.59064 443.52127 317.59064Q442.24002 317.59064 441.45877 316.7625Q440.69315 315.91876 440.69315 314.35626Q440.69315 313.35626 441.02127 312.60626Q441.36502 311.84064 442.0369 311.46564Q442.7244 311.09064 443.5369 311.09064Q444.5369 311.09064 445.17752 311.60626Q445.83377 312.10626 446.02127 313.0594L444.99002 313.21564Q444.8494 312.59064 444.4744 312.27814Q444.0994 311.95 443.56815 311.95Q442.77127 311.95 442.27127 312.52814Q441.77127 313.09064 441.77127 314.325Q441.77127 315.59064 442.25565 316.15314Q442.74002 316.71564 443.50565 316.71564Q444.13065 316.71564 444.5369 316.34064Q444.95877 315.96564 445.08377 315.16876ZM451.08377 316.6844Q450.49002 317.1844 449.94315 317.3875Q449.4119 317.59064 448.7869 317.59064Q447.75565 317.59064 447.20877 317.09064Q446.6619 316.59064 446.6619 315.8094Q446.6619 315.35626 446.86502 314.98126Q447.06815 314.59064 447.4119 314.3719Q447.75565 314.1375 448.17752 314.02814Q448.4744 313.9344 449.11502 313.85626Q450.38065 313.71564 450.99002 313.4969Q450.99002 313.27814 450.99002 313.23126Q450.99002 312.575 450.69315 312.3094Q450.2869 311.96564 449.49002 311.96564Q448.75565 311.96564 448.39627 312.23126Q448.0369 312.48126 447.86502 313.1375L446.83377 312.9969Q446.9744 312.34064 447.30252 311.9344Q447.63065 311.52814 448.24002 311.3094Q448.8494 311.09064 449.64627 311.09064Q450.44315 311.09064 450.94315 311.27814Q451.44315 311.46564 451.67752 311.7469Q451.9119 312.02814 452.00565 312.46564Q452.05252 312.73126 452.05252 313.4344L452.05252 314.84064Q452.05252 316.3094 452.11502 316.7Q452.19315 317.09064 452.39627 317.45L451.2869 317.45Q451.13065 317.1219 451.08377 316.6844ZM450.99002 314.325Q450.4119 314.5594 449.27127 314.73126Q448.61502 314.825 448.3494 314.95Q448.08377 315.0594 447.92752 315.27814Q447.7869 315.4969 447.7869 315.77814Q447.7869 316.2 448.0994 316.48126Q448.42752 316.7625 449.0369 316.7625Q449.64627 316.7625 450.11502 316.4969Q450.5994 316.23126 450.81815 315.7625Q450.99002 315.40314 450.99002 314.71564L450.99002 314.325ZM453.99002 317.45L453.99002 308.85626L455.05252 308.85626L455.05252 317.45L453.99002 317.45ZM457.02127 310.075L457.02127 308.85626L458.08377 308.85626L458.08377 310.075L457.02127 310.075ZM457.02127 317.45L457.02127 311.23126L458.08377 311.23126L458.08377 317.45L457.02127 317.45ZM459.45877 317.45L459.45877 316.59064L463.42752 312.04376Q462.74002 312.075 462.2244 312.075L459.69315 312.075L459.69315 311.23126L464.7869 311.23126L464.7869 311.91876L461.4119 315.8719L460.75565 316.59064Q461.4744 316.54376 462.08377 316.54376L464.9744 316.54376L464.9744 317.45L459.45877 317.45ZM469.27127 315.45L470.36502 315.575Q470.11502 316.52814 469.4119 317.0594Q468.70877 317.59064 467.63065 317.59064Q466.27127 317.59064 465.45877 316.7469Q464.6619 315.90314 464.6619 314.3875Q464.6619 312.825 465.4744 311.96564Q466.2869 311.09064 467.56815 311.09064Q468.81815 311.09064 469.5994 311.9344Q470.39627 312.77814 470.39627 314.325Q470.39627 314.41876 470.39627 314.60626L465.75565 314.60626Q465.81815 315.6375 466.33377 316.1844Q466.8494 316.71564 467.63065 316.71564Q468.20877 316.71564 468.61502 316.41876Q469.0369 316.10626 469.27127 315.45ZM465.81815 313.7469L469.2869 313.7469Q469.2244 312.95 468.89627 312.5594Q468.38065 311.95 467.58377 311.95Q466.8494 311.95 466.3494 312.4344Q465.86502 312.91876 465.81815 313.7469ZM476.05252 317.45L476.05252 316.66876Q475.45877 317.59064 474.31815 317.59064Q473.56815 317.59064 472.94315 317.1844Q472.31815 316.7625 471.9744 316.02814Q471.63065 315.29376 471.63065 314.34064Q471.63065 313.41876 471.94315 312.65314Q472.25565 311.8875 472.88065 311.4969Q473.50565 311.09064 474.27127 311.09064Q474.83377 311.09064 475.27127 311.325Q475.70877 311.5594 475.99002 311.9344L475.99002 308.85626L477.0369 308.85626L477.0369 317.45L476.05252 317.45ZM472.7244 314.34064Q472.7244 315.54376 473.2244 316.1375Q473.7244 316.71564 474.4119 316.71564Q475.0994 316.71564 475.58377 316.15314Q476.06815 315.59064 476.06815 314.4344Q476.06815 313.15314 475.56815 312.5594Q475.08377 311.96564 474.36502 311.96564Q473.6619 311.96564 473.19315 312.54376Q472.7244 313.10626 472.7244 314.34064Z" fill-rule="nonzero"/><path fill="#000000" d="M504.74902 303.45L504.74902 301.3875L501.03027 301.3875L501.03027 300.41876L504.95215 294.85626L505.81152 294.85626L505.81152 300.41876L506.96777 300.41876L506.96777 301.3875L505.81152 301.3875L505.81152 303.45L504.74902 303.45ZM504.74902 300.41876L504.74902 296.5594L502.06152 300.41876L504.74902 300.41876ZM511.7959 303.45L511.7959 294.85626L512.95215 294.85626L517.4678 301.60626L517.4678 294.85626L518.5615 294.85626L518.5615 303.45L517.38965 303.45L512.874 296.7L512.874 303.45L511.7959 303.45ZM520.2803 300.34064Q520.2803 298.60626 521.2334 297.77814Q522.0303 297.09064 523.1865 297.09064Q524.4678 297.09064 525.2803 297.9344Q526.1084 298.7625 526.1084 300.2469Q526.1084 301.45 525.749 302.1375Q525.38965 302.825 524.6865 303.21564Q523.999 303.59064 523.1865 303.59064Q521.88965 303.59064 521.07715 302.7625Q520.2803 301.91876 520.2803 300.34064ZM521.3584 300.34064Q521.3584 301.52814 521.874 302.1219Q522.4053 302.71564 523.1865 302.71564Q523.9834 302.71564 524.499 302.1219Q525.01465 301.52814 525.01465 300.3094Q525.01465 299.15314 524.4834 298.5594Q523.9678 297.96564 523.1865 297.96564Q522.4053 297.96564 521.874 298.5594Q521.3584 299.1375 521.3584 300.34064ZM531.70215 303.45L531.70215 302.66876Q531.1084 303.59064 529.9678 303.59064Q529.2178 303.59064 528.5928 303.1844Q527.9678 302.7625 527.624 302.02814Q527.2803 301.29376 527.2803 300.34064Q527.2803 299.41876 527.5928 298.65314Q527.9053 297.8875 528.5303 297.4969Q529.1553 297.09064 529.9209 297.09064Q530.4834 297.09064 530.9209 297.325Q531.3584 297.5594 531.63965 297.9344L531.63965 294.85626L532.6865 294.85626L532.6865 303.45L531.70215 303.45ZM528.374 300.34064Q528.374 301.54376 528.874 302.1375Q529.374 302.71564 530.0615 302.71564Q530.749 302.71564 531.2334 302.15314Q531.7178 301.59064 531.7178 300.4344Q531.7178 299.15314 531.2178 298.5594Q530.7334 297.96564 530.01465 297.96564Q529.3115 297.96564 528.8428 298.54376Q528.374 299.10626 528.374 300.34064ZM538.749 303.45L538.749 302.52814Q538.01465 303.59064 536.76465 303.59064Q536.2178 303.59064 535.7334 303.3875Q535.26465 303.16876 535.0303 302.85626Q534.7959 302.52814 534.70215 302.0594Q534.63965 301.7625 534.63965 301.075L534.63965 297.23126L535.70215 297.23126L535.70215 300.6844Q535.70215 301.4969 535.76465 301.79376Q535.8584 302.2 536.1709 302.45Q536.499 302.6844 536.9834 302.6844Q537.45215 302.6844 537.8584 302.45Q538.2803 302.2 538.45215 301.77814Q538.63965 301.35626 538.63965 300.5594L538.63965 297.23126L539.6865 297.23126L539.6865 303.45L538.749 303.45ZM541.63965 303.45L541.63965 294.85626L542.70215 294.85626L542.70215 303.45L541.63965 303.45ZM548.9209 301.45L550.01465 301.575Q549.76465 302.52814 549.0615 303.0594Q548.3584 303.59064 547.2803 303.59064Q545.9209 303.59064 545.1084 302.7469Q544.3115 301.90314 544.3115 300.3875Q544.3115 298.825 545.124 297.96564Q545.9365 297.09064 547.2178 297.09064Q548.4678 297.09064 549.249 297.9344Q550.0459 298.77814 550.0459 300.325Q550.0459 300.41876 550.0459 300.60626L545.4053 300.60626Q545.4678 301.6375 545.9834 302.1844Q546.499 302.71564 547.2803 302.71564Q547.8584 302.71564 548.26465 302.41876Q548.6865 302.10626 548.9209 301.45ZM545.4678 299.7469L548.9365 299.7469Q548.874 298.95 548.5459 298.5594Q548.0303 297.95 547.2334 297.95Q546.499 297.95 545.999 298.4344Q545.51465 298.91876 545.4678 299.7469ZM551.249 301.59064L552.2803 301.4344Q552.374 302.0594 552.76465 302.3875Q553.1709 302.71564 553.9053 302.71564Q554.624 302.71564 554.9678 302.4344Q555.32715 302.1375 555.32715 301.73126Q555.32715 301.3719 555.01465 301.16876Q554.7959 301.02814 553.9365 300.8094Q552.7803 300.5125 552.32715 300.3094Q551.88965 300.09064 551.6553 299.71564Q551.4209 299.34064 551.4209 298.8719Q551.4209 298.46564 551.6084 298.10626Q551.7959 297.7469 552.124 297.5125Q552.374 297.34064 552.7959 297.21564Q553.2178 297.09064 553.7178 297.09064Q554.4365 297.09064 554.9834 297.3094Q555.5459 297.5125 555.8115 297.8719Q556.07715 298.23126 556.1709 298.825L555.13965 298.96564Q555.07715 298.4969 554.7334 298.23126Q554.4053 297.95 553.7803 297.95Q553.0615 297.95 552.749 298.2Q552.4365 298.4344 552.4365 298.7625Q552.4365 298.96564 552.5615 299.1219Q552.70215 299.29376 552.9678 299.40314Q553.124 299.46564 553.9053 299.66876Q555.0303 299.98126 555.4678 300.16876Q555.9053 300.35626 556.1553 300.71564Q556.4053 301.075 556.4053 301.6219Q556.4053 302.15314 556.0928 302.6219Q555.7959 303.075 555.2178 303.34064Q554.63965 303.59064 553.9053 303.59064Q552.6865 303.59064 552.0459 303.09064Q551.4209 302.575 551.249 301.59064Z" fill-rule="nonzero"/><path fill="#000000" d="M504.24902 317.45L504.24902 308.85626L505.38965 308.85626L505.38965 316.4344L509.62402 316.4344L509.62402 317.45L504.24902 317.45ZM510.78027 314.34064Q510.78027 312.60626 511.7334 311.77814Q512.5303 311.09064 513.6865 311.09064Q514.9678 311.09064 515.7803 311.9344Q516.6084 312.7625 516.6084 314.2469Q516.6084 315.45 516.249 316.1375Q515.88965 316.825 515.1865 317.21564Q514.499 317.59064 513.6865 317.59064Q512.38965 317.59064 511.57715 316.7625Q510.78027 315.91876 510.78027 314.34064ZM511.8584 314.34064Q511.8584 315.52814 512.374 316.1219Q512.9053 316.71564 513.6865 316.71564Q514.4834 316.71564 514.999 316.1219Q515.51465 315.52814 515.51465 314.3094Q515.51465 313.15314 514.9834 312.5594Q514.4678 311.96564 513.6865 311.96564Q512.9053 311.96564 512.374 312.5594Q511.8584 313.1375 511.8584 314.34064ZM522.2334 315.16876L523.26465 315.3094Q523.0928 316.3719 522.38965 316.98126Q521.6865 317.59064 520.6709 317.59064Q519.38965 317.59064 518.6084 316.7625Q517.8428 315.91876 517.8428 314.35626Q517.8428 313.35626 518.1709 312.60626Q518.51465 311.84064 519.1865 311.46564Q519.874 311.09064 520.6865 311.09064Q521.6865 311.09064 522.32715 311.60626Q522.9834 312.10626 523.1709 313.0594L522.13965 313.21564Q521.999 312.59064 521.624 312.27814Q521.249 311.95 520.7178 311.95Q519.9209 311.95 519.4209 312.52814Q518.9209 313.09064 518.9209 314.325Q518.9209 315.59064 519.4053 316.15314Q519.88965 316.71564 520.6553 316.71564Q521.2803 316.71564 521.6865 316.34064Q522.1084 315.96564 522.2334 315.16876ZM528.2334 316.6844Q527.63965 317.1844 527.0928 317.3875Q526.5615 317.59064 525.9365 317.59064Q524.9053 317.59064 524.3584 317.09064Q523.8115 316.59064 523.8115 315.8094Q523.8115 315.35626 524.01465 314.98126Q524.2178 314.59064 524.5615 314.3719Q524.9053 314.1375 525.32715 314.02814Q525.624 313.9344 526.26465 313.85626Q527.5303 313.71564 528.13965 313.4969Q528.13965 313.27814 528.13965 313.23126Q528.13965 312.575 527.8428 312.3094Q527.4365 311.96564 526.63965 311.96564Q525.9053 311.96564 525.5459 312.23126Q525.1865 312.48126 525.01465 313.1375L523.9834 312.9969Q524.124 312.34064 524.45215 311.9344Q524.7803 311.52814 525.38965 311.3094Q525.999 311.09064 526.7959 311.09064Q527.5928 311.09064 528.0928 311.27814Q528.5928 311.46564 528.82715 311.7469Q529.0615 312.02814 529.1553 312.46564Q529.20215 312.73126 529.20215 313.4344L529.20215 314.84064Q529.20215 316.3094 529.26465 316.7Q529.3428 317.09064 529.5459 317.45L528.4365 317.45Q528.2803 317.1219 528.2334 316.6844ZM528.13965 314.325Q527.5615 314.5594 526.4209 314.73126Q525.76465 314.825 525.499 314.95Q525.2334 315.0594 525.07715 315.27814Q524.9365 315.4969 524.9365 315.77814Q524.9365 316.2 525.249 316.48126Q525.57715 316.7625 526.1865 316.7625Q526.7959 316.7625 527.26465 316.4969Q527.749 316.23126 527.9678 315.7625Q528.13965 315.40314 528.13965 314.71564L528.13965 314.325ZM531.13965 317.45L531.13965 308.85626L532.20215 308.85626L532.20215 317.45L531.13965 317.45ZM534.1709 310.075L534.1709 308.85626L535.2334 308.85626L535.2334 310.075L534.1709 310.075ZM534.1709 317.45L534.1709 311.23126L535.2334 311.23126L535.2334 317.45L534.1709 317.45ZM536.6084 317.45L536.6084 316.59064L540.57715 312.04376Q539.88965 312.075 539.374 312.075L536.8428 312.075L536.8428 311.23126L541.9365 311.23126L541.9365 311.91876L538.5615 315.8719L537.9053 316.59064Q538.624 316.54376 539.2334 316.54376L542.124 316.54376L542.124 317.45L536.6084 317.45ZM546.4209 315.45L547.51465 315.575Q547.26465 316.52814 546.5615 317.0594Q545.8584 317.59064 544.7803 317.59064Q543.4209 317.59064 542.6084 316.7469Q541.8115 315.90314 541.8115 314.3875Q541.8115 312.825 542.624 311.96564Q543.4365 311.09064 544.7178 311.09064Q545.9678 311.09064 546.749 311.9344Q547.5459 312.77814 547.5459 314.325Q547.5459 314.41876 547.5459 314.60626L542.9053 314.60626Q542.9678 315.6375 543.4834 316.1844Q543.999 316.71564 544.7803 316.71564Q545.3584 316.71564 545.76465 316.41876Q546.1865 316.10626 546.4209 315.45ZM542.9678 313.7469L546.4365 313.7469Q546.374 312.95 546.0459 312.5594Q545.5303 311.95 544.7334 311.95Q543.999 311.95 543.499 312.4344Q543.01465 312.91876 542.9678 313.7469ZM553.20215 317.45L553.20215 316.66876Q552.6084 317.59064 551.4678 317.59064Q550.7178 317.59064 550.0928 317.1844Q549.4678 316.7625 549.124 316.02814Q548.7803 315.29376 548.7803 314.34064Q548.7803 313.41876 549.0928 312.65314Q549.4053 311.8875 550.0303 311.4969Q550.6553 311.09064 551.4209 311.09064Q551.9834 311.09064 552.4209 311.325Q552.8584 311.5594 553.13965 311.9344L553.13965 308.85626L554.1865 308.85626L554.1865 317.45L553.20215 317.45ZM549.874 314.34064Q549.874 315.54376 550.374 316.1375Q550.874 316.71564 551.5615 316.71564Q552.249 316.71564 552.7334 316.15314Q553.2178 315.59064 553.2178 314.4344Q553.2178 313.15314 552.7178 312.5594Q552.2334 311.96564 551.51465 311.96564Q550.8115 311.96564 550.3428 312.54376Q549.874 313.10626 549.874 314.34064Z" fill-rule="nonzero"/><path fill="#757575" d="M20.08125 37.55L20.08125 23.2375L22.01875 23.2375L29.534374 34.471874L29.534374 23.2375L31.346874 23.2375L31.346874 37.55L29.409374 37.55L21.89375 26.3L21.89375 37.55L20.08125 37.55ZM39.659374 37.55L39.659374 36.01875Q38.45625 37.784374 36.378124 37.784374Q35.45625 37.784374 34.659374 37.440624Q33.8625 37.08125 33.471874 36.55Q33.096874 36.01875 32.940624 35.2375Q32.83125 34.721874 32.83125 33.596874L32.83125 27.175L34.58125 27.175L34.58125 32.925Q34.58125 34.3 34.690624 34.784374Q34.8625 35.471874 35.39375 35.878124Q35.940624 36.26875 36.721874 36.26875Q37.51875 36.26875 38.20625 35.8625Q38.909374 35.45625 39.190624 34.76875Q39.4875 34.065624 39.4875 32.7375L39.4875 27.175L41.2375 27.175L41.2375 37.55L39.659374 37.55ZM42.8625 37.55L42.8625 27.175L44.440624 27.175L44.440624 28.628124Q44.925 27.878124 45.7375 27.409374Q46.55 26.940624 47.58125 26.940624Q48.7375 26.940624 49.471874 27.425Q50.20625 27.89375 50.51875 28.753124Q51.753124 26.940624 53.721874 26.940624Q55.26875 26.940624 56.096874 27.8Q56.925 28.659374 56.925 30.425L56.925 37.55L55.175 37.55L55.175 31.01875Q55.175 29.95625 55.003124 29.503124Q54.83125 29.034374 54.378124 28.753124Q53.940624 28.471874 53.33125 28.471874Q52.2375 28.471874 51.503124 29.20625Q50.784374 29.925 50.784374 31.51875L50.784374 37.55L49.034374 37.55L49.034374 30.815624Q49.034374 29.64375 48.596874 29.065624Q48.175 28.471874 47.190624 28.471874Q46.45625 28.471874 45.815624 28.8625Q45.190624 29.253124 44.909374 30.003124Q44.628124 30.753124 44.628124 32.175L44.628124 37.55L42.8625 37.55ZM60.4875 37.55L58.8625 37.55L58.8625 23.2375L60.6125 23.2375L60.6125 28.346874Q61.7375 26.940624 63.45625 26.940624Q64.40938 26.940624 65.26875 27.33125Q66.12813 27.721874 66.675 28.425Q67.22188 29.1125 67.53438 30.096874Q67.84688 31.08125 67.84688 32.20625Q67.84688 34.878124 66.53438 36.33125Q65.22188 37.784374 63.378124 37.784374Q61.534374 37.784374 60.4875 36.253124L60.4875 37.55ZM60.471874 32.284374Q60.471874 34.14375 60.971874 34.9875Q61.815624 36.33125 63.221874 36.33125Q64.37813 36.33125 65.20625 35.33125Q66.05 34.33125 66.05 32.346874Q66.05 30.315624 65.2375 29.3625Q64.44063 28.39375 63.3 28.39375Q62.14375 28.39375 61.3 29.39375Q60.471874 30.39375 60.471874 32.284374ZM76.97188 34.20625L78.78438 34.440624Q78.3625 36.01875 77.19063 36.909374Q76.03438 37.784374 74.22188 37.784374Q71.95625 37.784374 70.6125 36.39375Q69.28438 34.9875 69.28438 32.45625Q69.28438 29.83125 70.62813 28.39375Q71.97188 26.940624 74.12813 26.940624Q76.20625 26.940624 77.51875 28.3625Q78.84688 29.76875 78.84688 32.346874Q78.84688 32.503124 78.83125 32.815624L71.09688 32.815624Q71.19063 34.51875 72.06563 35.425Q72.94063 36.33125 74.2375 36.33125Q75.20625 36.33125 75.87813 35.83125Q76.56563 35.315624 76.97188 34.20625ZM71.19063 31.3625L76.9875 31.3625Q76.87813 30.065624 76.33125 29.409374Q75.4875 28.39375 74.14375 28.39375Q72.94063 28.39375 72.1125 29.20625Q71.28438 30.003124 71.19063 31.3625ZM80.84688 37.55L80.84688 27.175L82.425 27.175L82.425 28.753124Q83.03438 27.64375 83.55 27.3Q84.06563 26.940624 84.675 26.940624Q85.56563 26.940624 86.4875 27.503124L85.87813 29.14375Q85.2375 28.753124 84.59688 28.753124Q84.01875 28.753124 83.55 29.1125Q83.09688 29.45625 82.89375 30.065624Q82.6125 31.003124 82.6125 32.1125L82.6125 37.55L80.84688 37.55ZM93.22188 32.3625Q93.22188 29.4875 94.81563 28.096874Q96.15938 26.940624 98.08125 26.940624Q100.22188 26.940624 101.56563 28.346874Q102.925 29.753124 102.925 32.221874Q102.925 34.221874 102.33125 35.378124Q101.7375 36.51875 100.58125 37.159374Q99.44063 37.784374 98.08125 37.784374Q95.89375 37.784374 94.55 36.39375Q93.22188 34.9875 93.22188 32.3625ZM95.01875 32.3625Q95.01875 34.3625 95.87813 35.346874Q96.75313 36.33125 98.08125 36.33125Q99.39375 36.33125 100.25313 35.346874Q101.12813 34.346874 101.12813 32.3Q101.12813 30.378124 100.25313 29.39375Q99.37813 28.39375 98.08125 28.39375Q96.75313 28.39375 95.87813 29.39375Q95.01875 30.378124 95.01875 32.3625ZM105.28438 37.55L105.28438 28.55L103.7375 28.55L103.7375 27.175L105.28438 27.175L105.28438 26.08125Q105.28438 25.034374 105.47188 24.51875Q105.72188 23.83125 106.3625 23.409374Q107.00313 22.9875 108.15938 22.9875Q108.90938 22.9875 109.8 23.159374L109.53438 24.690624Q108.9875 24.596874 108.50313 24.596874Q107.70625 24.596874 107.3625 24.940624Q107.03438 25.284374 107.03438 26.221874L107.03438 27.175L109.06563 27.175L109.06563 28.55L107.03438 28.55L107.03438 37.55L105.28438 37.55ZM117.40938 37.55L117.40938 23.2375L119.31563 23.2375L119.31563 37.55L117.40938 37.55ZM122.8625 37.55L122.8625 27.175L124.44063 27.175L124.44063 28.628124Q124.925 27.878124 125.7375 27.409374Q126.55 26.940624 127.58125 26.940624Q128.7375 26.940624 129.47188 27.425Q130.20625 27.89375 130.51875 28.753124Q131.75313 26.940624 133.72188 26.940624Q135.26875 26.940624 136.09688 27.8Q136.925 28.659374 136.925 30.425L136.925 37.55L135.175 37.55L135.175 31.01875Q135.175 29.95625 135.00313 29.503124Q134.83125 29.034374 134.37813 28.753124Q133.94063 28.471874 133.33125 28.471874Q132.2375 28.471874 131.50313 29.20625Q130.78438 29.925 130.78438 31.51875L130.78438 37.55L129.03438 37.55L129.03438 30.815624Q129.03438 29.64375 128.59688 29.065624Q128.175 28.471874 127.19063 28.471874Q126.45625 28.471874 125.81563 28.8625Q125.19063 29.253124 124.90938 30.003124Q124.62813 30.753124 124.62813 32.175L124.62813 37.55L122.8625 37.55ZM145.64375 36.26875Q144.65938 37.096874 143.75313 37.440624Q142.84688 37.784374 141.81563 37.784374Q140.1125 37.784374 139.19063 36.95625Q138.26875 36.1125 138.26875 34.815624Q138.26875 34.05 138.6125 33.425Q138.97188 32.8 139.53438 32.425Q140.09688 32.034374 140.8 31.83125Q141.31563 31.70625 142.3625 31.565624Q144.4875 31.315624 145.4875 30.971874Q145.50313 30.6125 145.50313 30.503124Q145.50313 29.440624 145.00313 28.9875Q144.33125 28.39375 143.00313 28.39375Q141.75313 28.39375 141.15938 28.83125Q140.58125 29.26875 140.3 30.378124L138.58125 30.14375Q138.81563 29.034374 139.34688 28.3625Q139.87813 27.675 140.89375 27.315624Q141.90938 26.940624 143.25313 26.940624Q144.58125 26.940624 145.40938 27.253124Q146.2375 27.565624 146.62813 28.05Q147.01875 28.51875 147.175 29.2375Q147.26875 29.690624 147.26875 30.8625L147.26875 33.20625Q147.26875 35.659374 147.37813 36.315624Q147.4875 36.95625 147.83125 37.55L145.9875 37.55Q145.72188 37.003124 145.64375 36.26875ZM145.4875 32.346874Q144.53438 32.7375 142.6125 33.003124Q141.53438 33.159374 141.08125 33.3625Q140.64375 33.55 140.39375 33.925Q140.14375 34.3 140.14375 34.76875Q140.14375 35.471874 140.675 35.940624Q141.20625 36.409374 142.2375 36.409374Q143.25313 36.409374 144.03438 35.971874Q144.83125 35.51875 145.20625 34.753124Q145.4875 34.14375 145.4875 32.9875L145.4875 32.346874ZM149.55 38.409374L151.25313 38.659374Q151.3625 39.45625 151.84688 39.815624Q152.50313 40.3 153.64375 40.3Q154.8625 40.3 155.51875 39.815624Q156.19063 39.33125 156.425 38.45625Q156.56563 37.909374 156.55 36.190624Q155.39375 37.55 153.675 37.55Q151.53438 37.55 150.3625 36.003124Q149.19063 34.45625 149.19063 32.3Q149.19063 30.815624 149.72188 29.565624Q150.26875 28.315624 151.28438 27.628124Q152.31563 26.940624 153.69063 26.940624Q155.51875 26.940624 156.72188 28.425L156.72188 27.175L158.33125 27.175L158.33125 36.14375Q158.33125 38.565624 157.83125 39.565624Q157.34688 40.58125 156.26875 41.159374Q155.20625 41.753124 153.64375 41.753124Q151.8 41.753124 150.64375 40.925Q149.50313 40.096874 149.55 38.409374ZM151.00313 32.175Q151.00313 34.221874 151.81563 35.159374Q152.62813 36.096874 153.84688 36.096874Q155.05 36.096874 155.8625 35.159374Q156.69063 34.221874 156.69063 32.2375Q156.69063 30.33125 155.84688 29.3625Q155.00313 28.39375 153.81563 28.39375Q152.64375 28.39375 151.81563 29.346874Q151.00313 30.3 151.00313 32.175ZM167.97188 34.20625L169.78438 34.440624Q169.3625 36.01875 168.19063 36.909374Q167.03438 37.784374 165.22188 37.784374Q162.95625 37.784374 161.6125 36.39375Q160.28438 34.9875 160.28438 32.45625Q160.28438 29.83125 161.62813 28.39375Q162.97188 26.940624 165.12813 26.940624Q167.20625 26.940624 168.51875 28.3625Q169.84688 29.76875 169.84688 32.346874Q169.84688 32.503124 169.83125 32.815624L162.09688 32.815624Q162.19063 34.51875 163.06563 35.425Q163.94063 36.33125 165.2375 36.33125Q166.20625 36.33125 166.87813 35.83125Q167.56563 35.315624 167.97188 34.20625ZM162.19063 31.3625L167.9875 31.3625Q167.87813 30.065624 167.33125 29.409374Q166.4875 28.39375 165.14375 28.39375Q163.94063 28.39375 163.1125 29.20625Q162.28438 30.003124 162.19063 31.3625ZM171.15938 34.45625L172.90938 34.175Q173.05 35.221874 173.72188 35.784374Q174.39375 36.33125 175.59688 36.33125Q176.8 36.33125 177.37813 35.846874Q177.97188 35.346874 177.97188 34.690624Q177.97188 34.096874 177.45625 33.753124Q177.09688 33.51875 175.65938 33.159374Q173.72188 32.659374 172.97188 32.315624Q172.2375 31.95625 171.84688 31.33125Q171.45625 30.690624 171.45625 29.925Q171.45625 29.2375 171.76875 28.64375Q172.09688 28.05 172.64375 27.659374Q173.05 27.3625 173.75313 27.159374Q174.47188 26.940624 175.28438 26.940624Q176.50313 26.940624 177.425 27.3Q178.34688 27.64375 178.78438 28.253124Q179.22188 28.846874 179.39375 29.846874L177.675 30.08125Q177.55 29.284374 176.9875 28.846874Q176.425 28.39375 175.40938 28.39375Q174.19063 28.39375 173.675 28.8Q173.15938 29.190624 173.15938 29.721874Q173.15938 30.065624 173.37813 30.346874Q173.58125 30.628124 174.05 30.815624Q174.31563 30.909374 175.59688 31.253124Q177.47188 31.753124 178.20625 32.08125Q178.94063 32.39375 179.3625 33.003124Q179.78438 33.596874 179.78438 34.503124Q179.78438 35.378124 179.26875 36.159374Q178.75313 36.940624 177.78438 37.3625Q176.81563 37.784374 175.59688 37.784374Q173.58125 37.784374 172.51875 36.940624Q171.45625 36.096874 171.15938 34.45625ZM187.8625 41.51875L187.8625 27.175L189.47188 27.175L189.47188 28.51875Q190.03438 27.7375 190.7375 27.346874Q191.45625 26.940624 192.47188 26.940624Q193.8 26.940624 194.81563 27.628124Q195.83125 28.315624 196.34688 29.565624Q196.87813 30.8 196.87813 32.284374Q196.87813 33.878124 196.3 35.159374Q195.7375 36.425 194.64375 37.1125Q193.55 37.784374 192.34688 37.784374Q191.47188 37.784374 190.76875 37.409374Q190.08125 37.034374 189.62813 36.471874L189.62813 41.51875L187.8625 41.51875ZM189.45625 32.425Q189.45625 34.425 190.26875 35.378124Q191.08125 36.33125 192.2375 36.33125Q193.40938 36.33125 194.2375 35.346874Q195.08125 34.3625 195.08125 32.26875Q195.08125 30.3 194.25313 29.315624Q193.44063 28.315624 192.31563 28.315624Q191.19063 28.315624 190.31563 29.378124Q189.45625 30.425 189.45625 32.425ZM205.97188 34.20625L207.78438 34.440624Q207.3625 36.01875 206.19063 36.909374Q205.03438 37.784374 203.22188 37.784374Q200.95625 37.784374 199.6125 36.39375Q198.28438 34.9875 198.28438 32.45625Q198.28438 29.83125 199.62813 28.39375Q200.97188 26.940624 203.12813 26.940624Q205.20625 26.940624 206.51875 28.3625Q207.84688 29.76875 207.84688 32.346874Q207.84688 32.503124 207.83125 32.815624L200.09688 32.815624Q200.19063 34.51875 201.06563 35.425Q201.94063 36.33125 203.2375 36.33125Q204.20625 36.33125 204.87813 35.83125Q205.56563 35.315624 205.97188 34.20625ZM200.19063 31.3625L205.9875 31.3625Q205.87813 30.065624 205.33125 29.409374Q204.4875 28.39375 203.14375 28.39375Q201.94063 28.39375 201.1125 29.20625Q200.28438 30.003124 200.19063 31.3625ZM209.84688 37.55L209.84688 27.175L211.425 27.175L211.425 28.753124Q212.03438 27.64375 212.55 27.3Q213.06563 26.940624 213.675 26.940624Q214.56563 26.940624 215.4875 27.503124L214.87813 29.14375Q214.2375 28.753124 213.59688 28.753124Q213.01875 28.753124 212.55 29.1125Q212.09688 29.45625 211.89375 30.065624Q211.6125 31.003124 211.6125 32.1125L211.6125 37.55L209.84688 37.55ZM223.01875 37.55L223.01875 23.2375L224.90938 23.2375L224.90938 35.8625L231.95625 35.8625L231.95625 37.55L223.01875 37.55ZM240.64375 36.26875Q239.65938 37.096874 238.75313 37.440624Q237.84688 37.784374 236.81563 37.784374Q235.1125 37.784374 234.19063 36.95625Q233.26875 36.1125 233.26875 34.815624Q233.26875 34.05 233.6125 33.425Q233.97188 32.8 234.53438 32.425Q235.09688 32.034374 235.8 31.83125Q236.31563 31.70625 237.3625 31.565624Q239.4875 31.315624 240.4875 30.971874Q240.50313 30.6125 240.50313 30.503124Q240.50313 29.440624 240.00313 28.9875Q239.33125 28.39375 238.00313 28.39375Q236.75313 28.39375 236.15938 28.83125Q235.58125 29.26875 235.3 30.378124L233.58125 30.14375Q233.81563 29.034374 234.34688 28.3625Q234.87813 27.675 235.89375 27.315624Q236.90938 26.940624 238.25313 26.940624Q239.58125 26.940624 240.40938 27.253124Q241.2375 27.565624 241.62813 28.05Q242.01875 28.51875 242.175 29.2375Q242.26875 29.690624 242.26875 30.8625L242.26875 33.20625Q242.26875 35.659374 242.37813 36.315624Q242.4875 36.95625 242.83125 37.55L240.9875 37.55Q240.72188 37.003124 240.64375 36.26875ZM240.4875 32.346874Q239.53438 32.7375 237.6125 33.003124Q236.53438 33.159374 236.08125 33.3625Q235.64375 33.55 235.39375 33.925Q235.14375 34.3 235.14375 34.76875Q235.14375 35.471874 235.675 35.940624Q236.20625 36.409374 237.2375 36.409374Q238.25313 36.409374 239.03438 35.971874Q239.83125 35.51875 240.20625 34.753124Q240.4875 34.14375 240.4875 32.9875L240.4875 32.346874ZM246.4875 37.55L244.8625 37.55L244.8625 23.2375L246.6125 23.2375L246.6125 28.346874Q247.7375 26.940624 249.45625 26.940624Q250.40938 26.940624 251.26875 27.33125Q252.12813 27.721874 252.675 28.425Q253.22188 29.1125 253.53438 30.096874Q253.84688 31.08125 253.84688 32.20625Q253.84688 34.878124 252.53438 36.33125Q251.22188 37.784374 249.37813 37.784374Q247.53438 37.784374 246.4875 36.253124L246.4875 37.55ZM246.47188 32.284374Q246.47188 34.14375 246.97188 34.9875Q247.81563 36.33125 249.22188 36.33125Q250.37813 36.33125 251.20625 35.33125Q252.05 34.33125 252.05 32.346874Q252.05 30.315624 251.2375 29.3625Q250.44063 28.39375 249.3 28.39375Q248.14375 28.39375 247.3 29.39375Q246.47188 30.39375 246.47188 32.284374ZM262.97186 34.20625L264.78436 34.440624Q264.3625 36.01875 263.1906 36.909374Q262.03436 37.784374 260.22186 37.784374Q257.95624 37.784374 256.6125 36.39375Q255.28438 34.9875 255.28438 32.45625Q255.28438 29.83125 256.6281 28.39375Q257.97186 26.940624 260.1281 26.940624Q262.20624 26.940624 263.51874 28.3625Q264.84686 29.76875 264.84686 32.346874Q264.84686 32.503124 264.83124 32.815624L257.09686 32.815624Q257.1906 34.51875 258.0656 35.425Q258.9406 36.33125 260.2375 36.33125Q261.20624 36.33125 261.8781 35.83125Q262.5656 35.315624 262.97186 34.20625ZM257.1906 31.3625L262.9875 31.3625Q262.8781 30.065624 262.33124 29.409374Q261.4875 28.39375 260.14374 28.39375Q258.9406 28.39375 258.1125 29.20625Q257.28436 30.003124 257.1906 31.3625ZM266.83124 37.55L266.83124 23.2375L268.58124 23.2375L268.58124 37.55L266.83124 37.55ZM276.1906 33.253124L276.1906 31.4875L281.58124 31.4875L281.58124 33.253124L276.1906 33.253124ZM290.01874 37.55L290.01874 23.2375L291.90936 23.2375L291.90936 35.8625L298.95624 35.8625L298.95624 37.55L290.01874 37.55ZM300.22186 32.3625Q300.22186 29.4875 301.8156 28.096874Q303.15936 26.940624 305.08124 26.940624Q307.22186 26.940624 308.5656 28.346874Q309.925 29.753124 309.925 32.221874Q309.925 34.221874 309.33124 35.378124Q308.7375 36.51875 307.58124 37.159374Q306.4406 37.784374 305.08124 37.784374Q302.89374 37.784374 301.55 36.39375Q300.22186 34.9875 300.22186 32.3625ZM302.01874 32.3625Q302.01874 34.3625 302.8781 35.346874Q303.7531 36.33125 305.08124 36.33125Q306.39374 36.33125 307.2531 35.346874Q308.1281 34.346874 308.1281 32.3Q308.1281 30.378124 307.2531 29.39375Q306.3781 28.39375 305.08124 28.39375Q303.7531 28.39375 302.8781 29.39375Q302.01874 30.378124 302.01874 32.3625ZM311.55 38.409374L313.2531 38.659374Q313.3625 39.45625 313.84686 39.815624Q314.5031 40.3 315.64374 40.3Q316.8625 40.3 317.51874 39.815624Q318.1906 39.33125 318.425 38.45625Q318.5656 37.909374 318.55 36.190624Q317.39374 37.55 315.675 37.55Q313.53436 37.55 312.3625 36.003124Q311.1906 34.45625 311.1906 32.3Q311.1906 30.815624 311.72186 29.565624Q312.26874 28.315624 313.28436 27.628124Q314.3156 26.940624 315.6906 26.940624Q317.51874 26.940624 318.72186 28.425L318.72186 27.175L320.33124 27.175L320.33124 36.14375Q320.33124 38.565624 319.83124 39.565624Q319.34686 40.58125 318.26874 41.159374Q317.20624 41.753124 315.64374 41.753124Q313.8 41.753124 312.64374 40.925Q311.5031 40.096874 311.55 38.409374ZM313.0031 32.175Q313.0031 34.221874 313.8156 35.159374Q314.6281 36.096874 315.84686 36.096874Q317.05 36.096874 317.8625 35.159374Q318.6906 34.221874 318.6906 32.2375Q318.6906 30.33125 317.84686 29.3625Q317.0031 28.39375 315.8156 28.39375Q314.64374 28.39375 313.8156 29.346874Q313.0031 30.3 313.0031 32.175ZM328.45624 32.95625L330.2375 32.8Q330.3625 33.8625 330.8156 34.55Q331.28436 35.2375 332.2531 35.675Q333.2375 36.096874 334.47186 36.096874Q335.55 36.096874 336.3781 35.784374Q337.20624 35.45625 337.6125 34.89375Q338.01874 34.33125 338.01874 33.659374Q338.01874 32.9875 337.6281 32.4875Q337.2375 31.9875 336.34686 31.64375Q335.76874 31.409374 333.78436 30.940624Q331.8156 30.471874 331.03436 30.05Q330.0031 29.51875 329.5031 28.721874Q329.0031 27.925 329.0031 26.940624Q329.0031 25.846874 329.6125 24.909374Q330.22186 23.971874 331.40936 23.4875Q332.59686 22.9875 334.03436 22.9875Q335.6281 22.9875 336.84686 23.503124Q338.0656 24.01875 338.70624 25.01875Q339.3625 26.003124 339.40936 27.26875L337.59686 27.409374Q337.45624 26.05 336.6125 25.3625Q335.76874 24.659374 334.1125 24.659374Q332.39374 24.659374 331.59686 25.3Q330.8156 25.925 330.8156 26.8Q330.8156 27.58125 331.3781 28.08125Q331.925 28.58125 334.2375 29.096874Q336.55 29.6125 337.40936 30.003124Q338.65936 30.58125 339.2531 31.471874Q339.84686 32.346874 339.84686 33.503124Q339.84686 34.64375 339.1906 35.659374Q338.53436 36.675 337.3 37.2375Q336.08124 37.8 334.55 37.8Q332.6125 37.8 331.3 37.2375Q329.9875 36.659374 329.2375 35.51875Q328.4875 34.378124 328.45624 32.95625ZM348.64374 33.753124L350.3625 33.971874Q350.08124 35.76875 348.90936 36.784374Q347.7531 37.784374 346.05 37.784374Q343.925 37.784374 342.6281 36.39375Q341.33124 35.003124 341.33124 32.409374Q341.33124 30.721874 341.8781 29.471874Q342.4406 28.20625 343.58124 27.58125Q344.72186 26.940624 346.0656 26.940624Q347.7531 26.940624 348.8156 27.8Q349.89374 28.659374 350.20624 30.221874L348.4875 30.4875Q348.2531 29.440624 347.6281 28.925Q347.0031 28.39375 346.1281 28.39375Q344.8 28.39375 343.97186 29.346874Q343.14374 30.3 343.14374 32.346874Q343.14374 34.440624 343.9406 35.39375Q344.7375 36.33125 346.03436 36.33125Q347.0656 36.33125 347.7531 35.70625Q348.45624 35.065624 348.64374 33.753124ZM358.64374 36.26875Q357.65936 37.096874 356.7531 37.440624Q355.84686 37.784374 354.8156 37.784374Q353.1125 37.784374 352.1906 36.95625Q351.26874 36.1125 351.26874 34.815624Q351.26874 34.05 351.6125 33.425Q351.97186 32.8 352.53436 32.425Q353.09686 32.034374 353.8 31.83125Q354.3156 31.70625 355.3625 31.565624Q357.4875 31.315624 358.4875 30.971874Q358.5031 30.6125 358.5031 30.503124Q358.5031 29.440624 358.0031 28.9875Q357.33124 28.39375 356.0031 28.39375Q354.7531 28.39375 354.15936 28.83125Q353.58124 29.26875 353.3 30.378124L351.58124 30.14375Q351.8156 29.034374 352.34686 28.3625Q352.8781 27.675 353.89374 27.315624Q354.90936 26.940624 356.2531 26.940624Q357.58124 26.940624 358.40936 27.253124Q359.2375 27.565624 359.6281 28.05Q360.01874 28.51875 360.175 29.2375Q360.26874 29.690624 360.26874 30.8625L360.26874 33.20625Q360.26874 35.659374 360.3781 36.315624Q360.4875 36.95625 360.83124 37.55L358.9875 37.55Q358.72186 37.003124 358.64374 36.26875ZM358.4875 32.346874Q357.53436 32.7375 355.6125 33.003124Q354.53436 33.159374 354.08124 33.3625Q353.64374 33.55 353.39374 33.925Q353.14374 34.3 353.14374 34.76875Q353.14374 35.471874 353.675 35.940624Q354.20624 36.409374 355.2375 36.409374Q356.2531 36.409374 357.03436 35.971874Q357.83124 35.51875 358.20624 34.753124Q358.4875 34.14375 358.4875 32.9875L358.4875 32.346874ZM362.83124 37.55L362.83124 23.2375L364.58124 23.2375L364.58124 37.55L362.83124 37.55ZM373.97186 34.20625L375.78436 34.440624Q375.3625 36.01875 374.1906 36.909374Q373.03436 37.784374 371.22186 37.784374Q368.95624 37.784374 367.6125 36.39375Q366.28436 34.9875 366.28436 32.45625Q366.28436 29.83125 367.6281 28.39375Q368.97186 26.940624 371.1281 26.940624Q373.20624 26.940624 374.51874 28.3625Q375.84686 29.76875 375.84686 32.346874Q375.84686 32.503124 375.83124 32.815624L368.09686 32.815624Q368.1906 34.51875 369.0656 35.425Q369.9406 36.33125 371.2375 36.33125Q372.20624 36.33125 372.8781 35.83125Q373.5656 35.315624 373.97186 34.20625ZM368.1906 31.3625L373.9875 31.3625Q373.8781 30.065624 373.33124 29.409374Q372.4875 28.39375 371.14374 28.39375Q369.9406 28.39375 369.1125 29.20625Q368.28436 30.003124 368.1906 31.3625Z" fill-rule="nonzero"/></svg>